<svg width="199" height="199" viewBox="0 0 199 199" fill="none" xmlns="http://www.w3.org/2000/svg">
<g id="gepjarmubiztositas" clip-path="url(#clip0_151_80)">
<g id="Group">
<path id="Vector" d="M161.375 198.5H37.625C17.1196 198.5 0.5 181.88 0.5 161.375V37.625C0.5 17.1196 17.1196 0.5 37.625 0.5H161.375C181.88 0.5 198.5 17.1196 198.5 37.625V161.375C198.5 181.88 181.88 198.5 161.375 198.5Z" fill="#001647"/>
</g>
<path id="Vector_2" d="M135.344 111.627C132.95 113.112 130.685 114.27 128.662 115.092C127.257 115.711 125.735 116.002 124.25 116.002C122.765 116.002 121.237 115.711 119.838 115.092C116.25 113.607 111.875 111.132 107.63 107.748H68.2346L74.3416 93.7209C75.0037 92.2359 76.4887 91.2459 78.0974 91.2459H94.352C93.1949 88.6904 92.2916 85.9246 91.7966 82.9979H78.0913C73.1846 82.9979 68.7296 85.9246 66.7496 90.4229L58.5821 109.19C58.5388 109.27 58.5821 109.357 58.5388 109.48C53.5083 112.042 50 117.196 50 123.217V138.685C50 144.378 54.6221 149 60.3146 149C66.0071 149 70.6291 144.378 70.6291 138.685V136.625H120.129V138.685C120.123 144.378 124.745 149 130.438 149C136.13 149 140.752 144.378 140.752 138.685V123.217C140.752 118.557 138.648 114.393 135.344 111.627ZM74.75 128.377H66.5021C64.2312 128.377 62.375 126.521 62.375 124.25C62.375 121.979 64.2312 120.123 66.5021 120.123H74.75C77.0208 120.123 78.8771 121.979 78.8771 124.25C78.8771 126.521 77.0208 128.377 74.75 128.377ZM124.25 128.377H116.002C113.731 128.377 111.875 126.521 111.875 124.25C111.875 121.979 113.731 120.123 116.002 120.123H124.25C126.521 120.123 128.377 121.979 128.377 124.25C128.377 126.521 126.521 128.377 124.25 128.377Z" fill="white"/>
<path id="Vector_3" d="M146.902 57.5302L125.246 50.1671C124.603 49.9443 123.904 49.9443 123.254 50.1671L101.598 57.5302C100.342 57.9571 99.5 59.1327 99.5 60.4631V77.0394C99.5 97.2725 122.078 107.098 123.043 107.513C123.823 107.841 124.683 107.841 125.463 107.513C126.422 107.098 149 97.2663 149 77.0332V60.4631C149 59.1327 148.158 57.9571 146.902 57.5302ZM137.807 73.1722L126.465 87.6076C125.017 89.4515 122.313 89.7176 120.537 88.1892L113.317 82.0017C111.584 80.5167 111.38 77.918 112.871 76.1855C114.356 74.4592 116.961 74.255 118.681 75.74L122.635 79.1246L131.322 68.0737C132.727 66.2855 135.319 65.9699 137.114 67.3807C138.902 68.7914 139.218 71.384 137.807 73.1722Z" fill="#629EF1"/>
</g>
<defs>
<clipPath id="clip0_151_80">
<rect width="198" height="198" fill="white" transform="translate(0.5 0.5)"/>
</clipPath>
</defs>
</svg>
