<svg width="201" height="201" viewBox="0 0 201 201" fill="none" xmlns="http://www.w3.org/2000/svg">
<g id="karbejelentes" clip-path="url(#clip0_156_377)">
<g id="Group">
<path id="Vector" d="M163 200.5H38C17.2875 200.5 0.5 183.712 0.5 163V38C0.5 17.2875 17.2875 0.5 38 0.5H163C183.712 0.5 200.5 17.2875 200.5 38V163C200.5 183.712 183.712 200.5 163 200.5Z" fill="#001647"/>
</g>
<g id="Group_2">
<path id="Vector_2" d="M88 121.331H78.625C76.325 121.331 74.4563 119.463 74.4563 117.163C74.4563 114.863 76.3188 113 78.625 113H88V104.669H84.1125C81.2063 104.669 78.4625 103.119 76.9688 100.625L68.1125 85.8625C67.3625 84.6125 65.9938 83.8375 64.5375 83.8375H54.6687C52.3625 83.8312 50.5 81.9687 50.5 79.6687C50.5 77.3687 52.3625 75.5 54.6687 75.5H64.5312C68.8938 75.5 73 77.825 75.2563 81.5687L84.1125 96.3375H88C92.5938 96.3375 96.3313 100.075 96.3313 104.669V113C96.3313 117.594 92.5938 121.331 88 121.331Z" fill="white"/>
<path id="Vector_3" d="M69.25 129.669C63.5063 129.669 58.8313 124.994 58.8313 119.25C58.8313 113.506 63.5 108.831 69.25 108.831C75 108.831 79.6688 113.506 79.6688 119.25C79.6688 124.994 74.9938 129.669 69.25 129.669Z" fill="white"/>
<path id="Vector_4" d="M59.875 121.331H54.6687C52.3625 121.331 50.5 119.469 50.5 117.169C50.5 114.869 52.3625 113 54.6687 113H59.875C62.175 113 64.0437 114.869 64.0437 117.169C64.0437 119.469 62.175 121.331 59.875 121.331Z" fill="white"/>
<path id="Vector_5" d="M63 100.5H54.6687C52.3625 100.5 50.5 98.6313 50.5 96.3313C50.5 94.0313 52.3625 92.1626 54.6687 92.1626H63C65.3 92.1626 67.1687 94.0313 67.1687 96.3313C67.1687 98.6313 65.3 100.5 63 100.5Z" fill="white"/>
<path id="Vector_6" d="M113 121.331H122.375C124.675 121.331 126.544 119.463 126.544 117.163C126.544 114.863 124.681 113 122.375 113H113V104.669H116.887C119.794 104.669 122.537 103.119 124.031 100.625L132.887 85.8625C133.637 84.6125 135.006 83.8375 136.462 83.8375H146.325C148.625 83.8375 150.494 81.9687 150.494 79.6687C150.494 77.3687 148.637 75.5 146.331 75.5H136.469C132.106 75.5 128 77.825 125.744 81.5687L116.887 96.3375H113C108.406 96.3375 104.669 100.075 104.669 104.669V113C104.669 117.594 108.406 121.331 113 121.331Z" fill="white"/>
<path id="Vector_7" d="M121.331 119.25C121.331 113.506 126 108.831 131.75 108.831C137.5 108.831 142.169 113.506 142.169 119.25C142.169 124.994 137.5 129.669 131.75 129.669C126 129.669 121.331 124.994 121.331 119.25Z" fill="white"/>
<path id="Vector_8" d="M141.125 121.331H146.331C148.631 121.331 150.5 119.463 150.5 117.163C150.5 114.863 148.638 113 146.331 113H141.125C138.825 113 136.956 114.869 136.956 117.169C136.956 119.469 138.825 121.331 141.125 121.331Z" fill="white"/>
<path id="Vector_9" d="M138 100.5H146.331C148.638 100.5 150.5 98.6313 150.5 96.3313C150.5 94.0313 148.638 92.1626 146.331 92.1626H138C135.7 92.1626 133.831 94.0313 133.831 96.3313C133.831 98.6313 135.7 100.5 138 100.5Z" fill="white"/>
</g>
<path id="Vector_10" d="M100.5 83.8313C98.775 83.8313 97.375 82.4313 97.375 80.7063V74.4563C97.375 72.7313 98.775 71.3313 100.5 71.3313C102.225 71.3313 103.625 72.7313 103.625 74.4563V80.7063C103.625 82.4313 102.225 83.8313 100.5 83.8313Z" fill="#629EF1"/>
<path id="Vector_11" d="M111.956 87.9999C111.156 87.9999 110.356 87.6937 109.744 87.0874C108.525 85.8687 108.525 83.8874 109.744 82.6687L111.825 80.5874C113.044 79.3687 115.025 79.3687 116.244 80.5874C117.462 81.8062 117.462 83.7874 116.244 85.0062L114.162 87.0874C113.556 87.6937 112.762 87.9999 111.956 87.9999Z" fill="#629EF1"/>
<path id="Vector_12" d="M89.0438 88.0001C88.2438 88.0001 87.4438 87.6938 86.8313 87.0876L84.75 85.0001C83.5312 83.7813 83.5312 81.8 84.75 80.5813C85.9688 79.3625 87.95 79.3625 89.1688 80.5813L91.25 82.6625C92.4688 83.8813 92.4688 85.8625 91.25 87.0813C90.6438 87.6938 89.8438 88.0001 89.0438 88.0001Z" fill="#629EF1"/>
</g>
<defs>
<clipPath id="clip0_156_377">
<rect width="200" height="200" fill="white" transform="translate(0.5 0.5)"/>
</clipPath>
</defs>
</svg>
