<svg width="201" height="201" viewBox="0 0 201 201" fill="none" xmlns="http://www.w3.org/2000/svg">
<g id="rendezveny_biztositas" clip-path="url(#clip0_156_399)">
<g id="Group">
<path id="Vector" d="M163 200.5H38C17.2875 200.5 0.5 183.712 0.5 163V38C0.5 17.2875 17.2875 0.5 38 0.5H163C183.712 0.5 200.5 17.2875 200.5 38V163C200.5 183.712 183.712 200.5 163 200.5Z" fill="#001647"/>
</g>
<path id="Vector_2" d="M117.169 86.9625V74.4187C117.169 72.7125 116.125 71.1687 114.5 70.5437L85.3312 59.125C84.375 58.75 83.2875 58.75 82.3313 59.125L53.1625 70.5437C51.5437 71.1687 50.5 72.7125 50.5 74.4187V101.087C50.5 132.631 82.375 141.919 82.7062 142.006C83.0812 142.131 83.4563 142.175 83.8313 142.175C84.2062 142.175 84.5812 142.131 84.9562 142.006C85.25 141.925 111.125 134.381 116.25 109.881H107.669C103.419 125.756 88.2125 132.088 83.8375 133.631C78.8812 131.838 58.8375 123.381 58.8375 101.087V77.25L83.8375 67.4563L108.837 77.25V86.9563L117.169 86.9625Z" fill="white"/>
<g id="Group_2">
<path id="Vector_3" d="M135.325 113C129.906 113 125.5 108.387 125.5 102.719C125.5 101.225 125.812 99.7687 126.412 98.4187C125.812 97.0749 125.5 95.6187 125.5 94.1249C125.5 88.4499 129.906 83.8374 135.325 83.8374C138.756 83.8374 141.869 85.6812 143.644 88.6437C147.65 89.9687 150.5 93.8937 150.5 98.4187C150.5 102.944 147.65 106.869 143.638 108.194C141.869 111.162 138.75 113 135.325 113Z" fill="#629EF1"/>
<path id="Vector_4" d="M83.8313 108.837C81.5313 108.837 79.6626 106.969 79.6626 104.669V92.1687C79.6626 89.8687 81.5251 88 83.8313 88C86.1376 88 88.0001 89.8687 88.0001 92.1687V104.669C88.0001 106.969 86.1376 108.837 83.8313 108.837Z" fill="#629EF1"/>
<path id="Vector_5" d="M128.625 101.544H84.875C83.15 101.544 81.75 100.144 81.75 98.4187C81.75 96.6937 83.15 95.2937 84.875 95.2937H128.625C130.35 95.2937 131.75 96.6937 131.75 98.4187C131.75 100.144 130.35 101.544 128.625 101.544Z" fill="#629EF1"/>
</g>
</g>
<defs>
<clipPath id="clip0_156_399">
<rect width="200" height="200" fill="white" transform="translate(0.5 0.5)"/>
</clipPath>
</defs>
</svg>
