<svg width="201" height="201" viewBox="0 0 201 201" fill="none" xmlns="http://www.w3.org/2000/svg">
<g id="szemelyes_tanacsadas" clip-path="url(#clip0_151_136)">
<g id="Group">
<path id="Vector" d="M163 200.5H38C17.2875 200.5 0.5 183.712 0.5 163V38C0.5 17.2875 17.2875 0.5 38 0.5H163C183.712 0.5 200.5 17.2875 200.5 38V163C200.5 183.712 183.712 200.5 163 200.5Z" fill="#001647"/>
</g>
<path id="Vector_2" d="M99.9189 91.875H99.9626L120.381 84.9188C120.463 84.5438 120.463 84.1687 120.463 83.8375C120.463 83.4625 120.419 83.1312 120.294 82.7937C119.963 81.8375 119.338 80.7938 118.463 80.0438V70.9188C118.463 64.1688 116.044 61.5 113.544 59.9625C112.25 56.0437 106.875 50.5 96.3314 50.5C83.8314 50.5 74.4126 62.875 74.4126 70.9188C74.4126 74.25 74.2876 76.875 74.1626 78.875C74.1626 79.2937 74.1189 79.6688 74.1189 80C73.2001 80.8313 72.5751 81.9562 72.2876 83.0437C72.2439 83.2937 72.2064 83.5437 72.2064 83.8375C72.2064 87.0875 74.0376 91.7938 74.2876 92.3375C74.5376 93.0438 75.0814 93.6313 75.7876 93.9625C75.8314 94.1313 75.8689 94.3812 75.8689 94.8812C75.8689 99.3 79.6626 103.463 81.7439 105.463C81.5376 110.044 80.2439 113.212 78.4126 114.006L62.0814 119.425C57.4564 120.969 54.0001 124.719 52.7876 129.469L50.5814 138.3C50.3751 139.219 50.5814 140.219 51.1626 140.969C51.7439 141.719 52.6626 142.175 53.6189 142.175H100.331C99.0814 140.594 97.9126 138.844 96.8314 136.969C94.0814 132.094 92.1626 126.175 92.1626 119.469V102.75C92.1689 97.8313 95.2939 93.5 99.9189 91.875Z" fill="white"/>
<path id="Vector_3" d="M148.381 99.7749L126.506 92.3375C125.856 92.1125 125.15 92.1125 124.494 92.3375L102.619 99.7749C101.35 100.206 100.5 101.394 100.5 102.731V119.475C100.5 139.912 123.306 149.837 124.281 150.256C125.069 150.587 125.937 150.587 126.725 150.256C127.7 149.844 150.506 139.912 150.506 119.475V102.731C150.506 101.394 149.65 100.206 148.381 99.7749ZM139.194 115.575L127.737 130.156C126.275 132.019 123.544 132.287 121.75 130.744L114.456 124.494C112.706 122.994 112.5 120.369 114.006 118.619C115.506 116.875 118.138 116.669 119.875 118.169L123.869 121.587L132.644 110.425C134.062 108.619 136.681 108.3 138.494 109.725C140.3 111.144 140.619 113.762 139.194 115.575Z" fill="#629EF1"/>
</g>
<defs>
<clipPath id="clip0_151_136">
<rect width="200" height="200" fill="white" transform="translate(0.5 0.5)"/>
</clipPath>
</defs>
</svg>
