<svg width="201" height="201" viewBox="0 0 201 201" fill="none" xmlns="http://www.w3.org/2000/svg">
<g id="tanulobiztositas" clip-path="url(#clip0_151_175)">
<g id="Group">
<path id="Vector" d="M163 200.5H38C17.2875 200.5 0.5 183.712 0.5 163V38C0.5 17.2875 17.2875 0.5 38 0.5H163C183.712 0.5 200.5 17.2875 200.5 38V163C200.5 183.712 183.712 200.5 163 200.5Z" fill="#001647"/>
</g>
<path id="Vector_2" d="M100.5 104.656C100.069 104.656 99.6438 104.569 99.2438 104.394L73.2 92.9374C72.0688 92.4374 71.3313 91.3186 71.3313 90.0749C71.3313 88.8311 72.0625 87.7124 73.2 87.2124L99.2438 75.7562C100.044 75.4062 100.963 75.4062 101.763 75.7562L127.806 87.2124C128.938 87.7124 129.675 88.8311 129.675 90.0749C129.675 91.3186 128.944 92.4374 127.806 92.9374L101.763 104.394C101.356 104.562 100.931 104.656 100.5 104.656Z" fill="#629EF1"/>
<path id="Vector_3" d="M104.275 110.112C103.063 110.644 101.8 110.906 100.5 110.906C99.2001 110.906 97.9376 110.644 96.7376 110.119L79.6626 102.606V105.475C79.6626 108.019 80.9938 110.406 83.1251 111.706C89.1313 115.35 94.8126 117.169 100.494 117.169C106.175 117.169 111.856 115.344 117.863 111.706C120 110.406 121.325 108.019 121.325 105.475V102.606L104.275 110.112Z" fill="#629EF1"/>
<path id="Vector_4" d="M100.5 150.5C100.131 150.5 99.7625 150.45 99.4063 150.356C99 150.244 58.8313 138.881 58.8313 100.187V68.9312C58.8313 67.2 59.9 65.65 61.5188 65.0375L99.0188 50.7687C99.9688 50.4062 101.031 50.4062 101.981 50.7687L139.481 65.0375C141.1 65.65 142.169 67.2 142.169 68.9312V100.187C142.169 138.881 102 150.244 101.594 150.356C101.238 150.45 100.869 150.5 100.5 150.5ZM67.1688 71.8062V100.187C67.1688 129.55 94.5188 140.037 100.5 141.981C106.481 140.037 133.831 129.55 133.831 100.187V71.8062L100.5 59.125L67.1688 71.8062Z" fill="white"/>
</g>
<defs>
<clipPath id="clip0_151_175">
<rect width="200" height="200" fill="white" transform="translate(0.5 0.5)"/>
</clipPath>
</defs>
</svg>
