<svg width="201" height="201" viewBox="0 0 201 201" fill="none" xmlns="http://www.w3.org/2000/svg">
<g id="utazasbiztositas" clip-path="url(#clip0_151_153)">
<g id="Group">
<path id="Vector" d="M163 200.5H38C17.2875 200.5 0.5 183.712 0.5 163V38C0.5 17.2875 17.2875 0.5 38 0.5H163C183.712 0.5 200.5 17.2875 200.5 38V163C200.5 183.712 183.712 200.5 163 200.5Z" fill="#001647"/>
</g>
<path id="Vector_2" d="M148.381 58.1062L126.506 50.6687C125.856 50.4438 125.15 50.4438 124.494 50.6687L102.619 58.1062C101.35 58.5375 100.5 59.725 100.5 61.0687V77.8125C100.5 98.25 123.306 108.175 124.281 108.594C125.069 108.925 125.937 108.925 126.725 108.594C127.694 108.175 150.5 98.2438 150.5 77.8062V61.0687C150.5 59.725 149.65 58.5375 148.381 58.1062ZM139.194 73.9062L127.737 88.4875C126.275 90.35 123.544 90.6187 121.75 89.075L114.456 82.825C112.706 81.325 112.5 78.7 114.006 76.95C115.506 75.2062 118.138 75 119.875 76.5L123.869 79.9187L132.644 68.7562C134.062 66.95 136.681 66.6312 138.494 68.0562C140.3 69.4812 140.619 72.1 139.194 73.9062Z" fill="#629EF1"/>
<g id="Group_2">
<path id="Vector_3" d="M96.3313 94.2937V129.669C96.3313 131.962 94.4563 133.837 92.1625 133.837H63C60.7063 133.837 58.8313 131.962 58.8313 129.669V92.1687C58.8313 89.875 60.7063 88 63 88H92.1687C92.75 88 93.3375 88.125 93.8375 88.3312C92.9625 85.625 92.3812 82.75 92.2125 79.6625H63C56.125 79.6625 50.5 85.2875 50.5 92.1625V129.662C50.5 136.537 56.125 142.162 63 142.162H92.1687C99.0438 142.162 104.669 136.537 104.669 129.662V105.287C101.5 102.169 98.5438 98.5 96.3313 94.2937Z" fill="white"/>
<path id="Vector_4" d="M85.9187 85.9187C83.6125 85.9187 81.75 84.05 81.75 81.75V67.1687C81.75 64.8625 83.6125 63 85.9187 63C88.2187 63 90.0875 64.8687 90.0875 67.1687V81.75C90.0812 84.05 88.2187 85.9187 85.9187 85.9187Z" fill="white"/>
<path id="Vector_5" d="M70.2937 85.9187C67.9937 85.9187 66.125 84.05 66.125 81.75V67.1687C66.125 64.8687 67.9875 63 70.2937 63C72.5937 63 74.4625 64.8687 74.4625 67.1687V81.75C74.4562 84.05 72.5937 85.9187 70.2937 85.9187Z" fill="white"/>
<path id="Vector_6" d="M92.1688 63V71.3313H63C60.7063 71.3313 58.8313 69.4563 58.8313 67.1625C58.8313 64.875 60.7063 63 63 63H92.1688Z" fill="white"/>
<path id="Vector_7" d="M63 150.5C60.7 150.5 58.8313 148.631 58.8313 146.331V140.081C58.8313 137.781 60.6938 135.912 63 135.912C65.3 135.912 67.1688 137.781 67.1688 140.081V146.331C67.1688 148.637 65.3 150.5 63 150.5Z" fill="white"/>
<path id="Vector_8" d="M92.1687 150.5C89.8625 150.5 88 148.637 88 146.331V140.081C88 137.781 89.8625 135.912 92.1687 135.912C94.4687 135.912 96.3375 137.781 96.3375 140.081V146.331C96.3312 148.637 94.4687 150.5 92.1687 150.5Z" fill="white"/>
<path id="Vector_9" d="M80.7063 125.5H74.4563C70.4376 125.5 67.1626 122.231 67.1626 118.206V111.956C67.1626 107.937 70.4313 104.662 74.4563 104.662H80.7063C84.7251 104.662 88.0001 107.931 88.0001 111.956V118.206C88.0001 122.231 84.7313 125.5 80.7063 125.5Z" fill="white"/>
</g>
</g>
<defs>
<clipPath id="clip0_151_153">
<rect width="200" height="200" fill="white" transform="translate(0.5 0.5)"/>
</clipPath>
</defs>
</svg>
