<svg width="165" height="75" viewBox="0 0 165 75" fill="none" xmlns="http://www.w3.org/2000/svg">
<path fill-rule="evenodd" clip-rule="evenodd" d="M37.2518 0C16.6788 0 0 16.6798 0 37.2518C0 57.8258 16.6788 74.5046 37.2518 74.5046C57.8258 74.5046 74.5037 57.8267 74.5037 37.2518C74.5037 16.6798 57.8258 0 37.2518 0ZM61.0661 45.5557C59.7359 45.5557 58.516 46.019 57.5511 46.7887C58.6454 44.4639 59.3296 41.9674 59.5734 39.4095C59.6808 39.6944 59.806 39.9747 59.9629 40.2465C60.7114 41.5425 61.944 42.4882 63.3897 42.8755C64.8354 43.2628 66.3757 43.06 67.6719 42.3117C68.5491 41.8048 69.2728 41.0699 69.766 40.1848C69.4243 44.0664 68.3865 47.8547 66.7023 51.3685C66.7041 51.3134 66.7107 51.2573 66.7107 51.2004C66.7099 49.7035 66.115 48.2682 65.0566 47.2098C63.9982 46.1514 62.5629 45.5565 61.0661 45.5557ZM66.1259 26.424C66.6537 25.5086 66.89 24.5073 66.8751 23.5219C68.5115 27.0487 69.5005 30.8409 69.795 34.7177C69.7744 34.6794 69.7586 34.6402 69.7371 34.6028C68.9888 33.3066 67.7562 32.3607 66.3105 31.9732C64.8648 31.5858 63.3244 31.7884 62.0282 32.5366C60.9164 33.1768 60.0576 34.1787 59.5949 35.3753C59.384 32.8106 58.7301 30.3019 57.6623 27.9606C57.8968 28.153 58.1452 28.3333 58.417 28.4902C59.7134 29.2382 61.2537 29.4407 62.6993 29.0532C64.1449 28.6658 65.3774 27.7201 66.1259 26.424ZM64.1821 18.7945C64.1401 18.7693 64.1027 18.7394 64.0598 18.7151C63.4179 18.3445 62.7094 18.1039 61.9746 18.007C61.2397 17.9102 60.493 17.9591 59.7771 18.1509C59.0612 18.3427 58.39 18.6736 57.802 19.1247C57.2139 19.5759 56.7205 20.1385 56.3499 20.7804C55.7084 21.8896 55.4655 23.1849 55.6615 24.4513C54.1895 22.3401 52.3673 20.4961 50.2738 18.9991C50.5755 19.0495 50.8837 19.0813 51.1994 19.0813C52.6961 19.0808 54.1313 18.486 55.1896 17.4277C56.2479 16.3694 56.8426 14.9342 56.8431 13.4376C56.8428 12.4247 56.5681 11.4308 56.0482 10.5616C59.2256 12.8026 61.9797 15.5902 64.1821 18.7945ZM48.0796 66.125C48.995 66.6537 49.9973 66.8891 50.9827 66.8751C47.4559 68.5115 43.6637 69.5009 39.7869 69.7959L39.9018 69.738C41.1981 68.9895 42.144 67.7568 42.5314 66.3109C42.9189 64.8651 42.7162 63.3246 41.968 62.0282C41.3273 60.9167 40.3256 60.0581 39.1293 59.5949C41.694 59.3847 44.2028 58.7312 46.544 57.6632C46.3476 57.9004 46.1708 58.1531 46.0153 58.4189C45.6446 59.0604 45.4039 59.7686 45.307 60.5031C45.2101 61.2376 45.2589 61.9841 45.4506 62.6997C45.6423 63.4154 45.9732 64.0862 46.4243 64.674C46.8754 65.2617 47.4379 65.7548 48.0796 66.125ZM27.7149 57.5502C30.0395 58.6452 32.5361 59.3297 35.0941 59.5734C34.8048 59.6794 34.5249 59.8094 34.2572 59.962C32.9612 60.7103 32.0155 61.9427 31.6281 63.3882C31.2406 64.8336 31.4431 66.3738 32.191 67.67C32.6974 68.5477 33.4325 69.2715 34.3179 69.7642C30.4365 69.4221 26.6483 68.3847 23.1342 66.7013C23.1912 66.7032 23.2454 66.7088 23.3024 66.7088C24.364 66.7083 25.404 66.4083 26.3029 65.8433C27.2017 65.2783 27.923 64.4712 28.3838 63.5147C28.8446 62.5583 29.0263 61.4912 28.908 60.4362C28.7897 59.3811 28.3761 58.3808 27.7149 57.5502ZM37.2518 55.3336C27.2666 55.3336 19.1709 47.2371 19.1709 37.2518C19.1709 27.2666 27.2666 19.1709 37.2518 19.1709C47.2371 19.1709 55.3327 27.2666 55.3327 37.2518C55.3336 47.2371 47.238 55.3336 37.2518 55.3336ZM26.424 8.37772C25.5417 7.86966 24.538 7.61074 23.52 7.62859C27.0471 5.99201 30.8397 5.00266 34.7168 4.70773C34.6785 4.72828 34.6392 4.7451 34.6019 4.76658C33.3058 5.51508 32.3601 6.74764 31.9727 8.19325C31.5852 9.63886 31.7877 11.1792 32.5357 12.4755C33.1762 13.5864 34.1776 14.4447 35.3734 14.9078C32.8091 15.1192 30.3008 15.7731 27.9597 16.8404C28.1564 16.6036 28.3335 16.3512 28.4893 16.0857C29.2373 14.7896 29.4399 13.2495 29.0526 11.8041C28.6653 10.3587 27.7198 9.12619 26.424 8.37772ZM46.7878 16.9525C44.4632 15.8586 41.9671 15.1744 39.4095 14.9302C39.6935 14.8228 39.9737 14.6977 40.2455 14.5417C41.5416 13.7932 42.4873 12.5606 42.8747 11.115C43.2622 9.6694 43.0597 8.12909 42.3117 6.83275C41.8044 5.95516 41.0687 5.23145 40.183 4.73856C44.0649 5.08022 47.8536 6.11836 51.3676 7.80326C51.3106 7.80232 51.2564 7.79485 51.1994 7.79485C49.7026 7.79485 48.267 8.38942 47.2084 9.44779C46.1499 10.5062 45.5551 11.9416 45.5548 13.4385C45.5551 14.7159 45.9899 15.9551 46.7878 16.9525ZM18.7945 10.3215C18.7684 10.3626 18.7394 10.4019 18.7151 10.4439C17.9668 11.7403 17.7639 13.2809 18.1512 14.7269C18.5385 16.1729 19.4842 17.4058 20.7804 18.1547C21.8896 18.7953 23.1843 19.0381 24.4503 18.8431C22.3387 20.3146 20.4947 22.1368 18.9981 24.2308C19.0486 23.9291 19.0813 23.6218 19.0813 23.3052C19.081 21.8084 18.4864 20.3731 17.428 19.3148C16.3697 18.2564 14.9343 17.6617 13.4376 17.6615C12.4251 17.6613 11.4315 17.9357 10.5625 18.4554C12.8027 15.2776 15.5901 12.5235 18.7945 10.3215ZM8.37865 48.0806C7.87027 48.9621 7.61131 49.9653 7.62952 50.9827C5.99326 47.4559 5.00423 43.6637 4.7096 39.7869C4.73015 39.8252 4.74697 39.8635 4.76752 39.9018C5.29916 40.8221 6.07996 41.5736 7.01998 42.0695C7.96 42.5655 9.021 42.7859 10.0808 42.7053C11.1406 42.6246 12.156 42.2463 13.0102 41.6138C13.8643 40.9813 14.5225 40.1204 14.9088 39.1302C15.1208 41.6947 15.7747 44.2032 16.8414 46.5449C16.6045 46.3486 16.3521 46.1718 16.0866 46.0163C15.445 45.6456 14.7366 45.405 14.002 45.3081C13.2673 45.2113 12.5208 45.2601 11.805 45.4518C11.0893 45.6435 10.4183 45.9743 9.83036 46.4253C9.24245 46.8764 8.74916 47.4388 8.37865 48.0806ZM13.4376 28.9479C14.7677 28.9479 15.9876 28.4855 16.9525 27.7159C15.858 30.0406 15.1738 32.5371 14.9303 35.095C14.8231 34.8061 14.6929 34.5262 14.5407 34.2581C13.7924 32.9619 12.5599 32.016 11.1142 31.6286C9.66849 31.2411 8.1281 31.4437 6.83182 32.1919C5.95453 32.6988 5.23086 33.4338 4.73763 34.3188C5.07942 30.4372 6.11756 26.6488 7.80233 23.1352C7.80046 23.1912 7.79392 23.2463 7.79392 23.3033C7.79392 24.8002 8.38849 26.2358 9.44686 27.2943C10.5052 28.3528 11.9407 28.9477 13.4376 28.9479ZM10.3215 55.7101C10.3636 55.7353 10.4009 55.7652 10.4439 55.7885C11.3641 56.3199 12.4156 56.5805 13.4775 56.5404C14.5393 56.5004 15.5682 56.1612 16.4457 55.5619C17.3232 54.9627 18.0136 54.1278 18.4374 53.1534C18.8612 52.179 19.0012 51.1047 18.8412 50.0543C20.3133 52.1654 22.1359 54.0091 24.2299 55.5055C23.9241 55.453 23.6145 55.4255 23.3042 55.4233C22.5631 55.4232 21.8293 55.5691 21.1446 55.8526C20.4598 56.1361 19.8377 56.5517 19.3136 57.0757C18.7895 57.5997 18.3738 58.2218 18.0902 58.9065C17.8065 59.5911 17.6605 60.325 17.6605 61.0661C17.6605 62.1169 17.9538 63.0986 18.4554 63.9411C15.2781 61.7008 12.524 58.9138 10.3215 55.7101ZM55.7091 64.1821C55.7344 64.1401 55.7643 64.1037 55.7886 64.0598C56.1592 63.4179 56.3998 62.7094 56.4966 61.9745C56.5934 61.2397 56.5446 60.493 56.3528 59.7771C56.161 59.0612 55.8301 58.39 55.3789 57.802C54.9277 57.2139 54.3652 56.7205 53.7233 56.3499C52.6144 55.7083 51.3193 55.4657 50.0533 55.6624C52.1645 54.19 54.0082 52.3671 55.5046 50.2728C55.4516 50.5789 55.4241 50.8888 55.4224 51.1994C55.4226 52.6961 56.0173 54.1313 57.0757 55.1895C58.1341 56.2477 59.5694 56.8422 61.0661 56.8422C62.0785 56.8418 63.072 56.5674 63.9412 56.0482C61.701 59.226 58.9136 61.9802 55.7091 64.1821ZM107.493 23.5013H82.7217V51.8636H94.1557V39.0621H107.493V34.104H94.3247V28.1184H107.493V23.5013ZM125.476 51.9317H135.001L126.476 23.5013H117.148L108.374 51.8131L113.333 51.8383L115.161 46.2189H123.679L125.476 51.9317ZM116.622 41.7223L119.49 32.9065L122.263 41.7223H116.622ZM153.351 30.9748V28.068H147.416V47.1007H153.007V39.9186H149.954V34.6682H164.123V48.5896C164.123 49.958 164.637 51.9084 161.9 51.9084H139.129C137.591 51.9084 136.565 51.0528 136.565 49.3434V25.7253C136.565 24.5279 136.906 23.2454 139.044 23.2454H161.019C162.728 23.2454 164.14 24.271 164.14 26.3661V30.9758L153.351 30.9748Z" fill="white"/>
</svg>
