<svg width="172" height="57" viewBox="0 0 172 57" fill="none" xmlns="http://www.w3.org/2000/svg">
<path fill-rule="evenodd" clip-rule="evenodd" d="M126.467 0.15217H139.334L158.49 27.6453V0.15217H171.946V56.4523H160.097L140.06 26.9089V56.4523H126.467V0.15217ZM64.899 0.0102539H80.8359C80.7654 0.0102539 89.3154 30.4194 89.3154 30.4194L97.6565 0.0102539H114.473L122.512 56.3068H108.331L104.095 27.3463L95.9008 56.3068H82.3042L74.5531 26.7625L70.0241 56.3068H56.2785L64.899 0.0102539ZM51.1926 21.6418V53.1257C44.6589 55.5758 38.1761 56.1836 31.2801 56.4585C-17.4108 58.3794 -7.60497 -18.0135 51.1926 4.31336L51.2229 16.9237C45.053 13.6935 38.1731 12.0577 31.2096 12.1653H31.1132C28.8724 12.1491 26.6506 12.5764 24.5757 13.4227C22.5008 14.269 20.6138 15.5174 19.0236 17.0962C17.4333 18.675 16.1712 20.5528 15.3099 22.6215C14.4486 24.6902 14.0052 26.9089 14.0052 29.1497C14.0052 31.3906 14.4486 33.6093 15.3099 35.678C16.1712 37.7467 17.4333 39.6245 19.0236 41.2033C20.6138 42.782 22.5008 44.0305 24.5757 44.8768C26.6506 45.723 28.8724 46.1504 31.1132 46.1341C33.6258 46.1341 35.7296 45.2585 38.0262 44.3588L38.26 44.3249L38.1038 44.3463L38.0262 32.5696H29.0371V21.4276L51.1926 21.6418Z" fill="white"/>
</svg>
