<svg width="64" height="63" viewBox="0 0 64 63" fill="none" xmlns="http://www.w3.org/2000/svg">
<g clip-path="url(#clip0_36_755)">
<path fill-rule="evenodd" clip-rule="evenodd" d="M0.0709229 31.2326L31.53 62.1923L62.9879 31.2326L31.53 0.272949L0.0709229 31.2326ZM26.8645 12.6156V10.1751H35.6437V12.6156H32.6793V20.0772H35.6437V22.4336H26.8645V20.0772H29.6579V12.6156H26.8645ZM12.9547 26.6693V24.1727H21.7339V26.6693H18.7695V34.0749H21.5628V36.4873H13.0402V34.0749H15.8336V26.6693H12.9547ZM23.102 26.6974V24.1727H27.6626L32.4513 31.5502V26.6974H31.2541V24.1727H36.8409V26.6974H35.7292V36.5153H32.3658L27.5771 29.1378V34.0749H28.7743V36.5153H23.102V34.0749H24.4417V26.6974H23.102ZM39.5487 26.5852V24.1727H48.0143V26.6693H46.9882L49.2115 34.0749H50.4942V36.5153H44.9644V34.0749H46.2471L45.791 32.7284H41.715L41.2304 34.0749H42.5131V36.5153H36.9264V34.0749H38.1805L40.5748 26.5852H39.5487ZM45.1354 30.6245L43.8528 26.5852L42.4276 30.6245H45.1354ZM26.9215 40.7511V38.1703H35.4727V40.7511H34.361L36.6698 48.2127H37.9525V50.569H32.4513V48.1286H33.7339L33.2494 46.8102H29.1733L28.6888 48.1286H29.8859V50.569H24.2992V48.2127H25.5534L27.9477 40.7511H26.9215ZM32.5368 44.6783L31.2541 40.6669L29.8859 44.6783H32.5368Z" fill="white"/>
</g>
<defs>
<clipPath id="clip0_36_755">
<rect width="63" height="62" fill="white" transform="translate(0.0371094 0.252441)"/>
</clipPath>
</defs>
</svg>
