<svg width="133" height="53" viewBox="0 0 133 53" fill="none" xmlns="http://www.w3.org/2000/svg">
<g clip-path="url(#clip0_36_759)">
<path d="M113.94 52.0835H132.007C126.999 46.0411 119.329 35.1491 114.49 27.2562C119.799 20.9266 124.888 15.0451 127.787 11.9781H110.511C108.05 16.6542 104.203 21.9947 100.452 26.6903C100.369 26.8595 100.216 27.0593 100.074 27.2965C100.13 21.666 100.311 16.0216 100.753 11.9781H87.3009C88.0152 16.5793 88.2615 25.8552 88.2615 32.0308C88.2615 39.1469 87.8756 47.7778 87.171 52.0835H101.149C100.93 49.7531 100.922 47.2465 100.758 44.0672C102.296 42.1168 104.06 39.9168 105.947 37.5961C108.574 41.838 112.056 47.8583 113.94 52.0835ZM81.2375 11.978H58.4199C50.2594 11.978 44.3128 15.1115 44.3128 23.4608C44.3128 33.4664 54.8295 35.8967 63.4333 37.3796C67.1263 38.0163 71.7333 39.23 73.8432 39.8071C74.4316 39.968 74.5301 40.1261 74.5301 40.3522C74.5301 40.5201 74.4316 40.7046 73.7831 40.7351C70.361 40.8918 65.8442 40.7739 62.5247 40.6435C57.12 40.4285 49.6327 39.95 45.235 38.7445V52.0834H66.0714C78.5132 52.0834 85.6133 49.7336 85.6133 39.4547C85.6133 31.6284 79.2193 27.897 66.0891 25.5332C62.1621 24.8272 58.959 24.2765 56.8368 23.8714C56.2375 23.7563 56.0431 23.5857 56.0431 23.3929C56.0431 23.1903 56.2279 23.0225 56.8368 22.9947C62.6629 22.7506 77.8277 23.3929 81.2402 24.6607L81.2375 11.978ZM13.467 30.5765C13.3699 30.4336 13.2111 30.1743 13.088 29.944C13.1838 30.2922 13.2878 30.8345 13.3206 31.1758C13.3206 37.9201 13.5792 46.3748 14.2428 52.083H0.135742C0.83357 46.293 1.18933 37.6011 1.18933 30.6917C1.18933 23.8558 1.02513 16.8784 0.531178 11.9775H17.2763C20.5192 17.9104 24.7527 24.9682 28.4662 30.3324C28.6181 30.5391 28.77 30.7749 28.8616 30.9649C28.8384 30.7402 28.8138 30.528 28.8055 30.3504C28.8055 24.5507 28.4443 17.1669 27.8258 11.9775H41.8043C41.2132 17.4513 41.0121 25.5633 41.0121 32.033C41.0121 39.8122 41.3541 46.6925 42.3366 52.083H26.9036C23.9618 46.5122 17.7415 36.5704 13.467 30.5765Z" fill="white"/>
<path d="M128.521 0.899125H127.771L127.774 3.22538L127.346 3.22686L127.344 0.899215H126.599V0.502487L128.518 0.501005L128.521 0.899125ZM130.29 2.50365L130.972 0.501975L131.628 0.500501L131.63 3.22349H131.203V1.01098L131.188 1.00949L130.432 3.22478H130.142L129.381 1.01089H129.369V3.22478H128.944L128.941 0.501795H129.599L130.29 2.50365ZM44.1039 7.59312C44.97 7.59312 45.3901 7.22414 45.3901 6.53888V1.42166C44.8769 0.829346 44.6662 0.822411 44.1039 0.822411V0.450652H46.9321L51.1259 5.55678H51.1492V1.86416C51.1492 1.2011 50.8139 0.822411 49.7959 0.822411V0.450652H52.9238V0.822411C51.977 0.822411 51.7389 1.26769 51.7389 1.86416V7.96488H50.7592L46.0017 2.16795H45.9784V6.53888C45.9784 7.23523 46.4258 7.59312 47.344 7.59312V7.96488H44.1039L44.1039 7.59312ZM73.4179 5.02397C73.4179 7.08944 71.9852 8.09236 70.3734 8.09236C67.6341 8.09236 65.9908 6.26685 65.9908 4.20138C65.9908 1.96113 67.6998 0.299316 70.1668 0.299316C70.9057 0.299316 71.5652 0.576745 72.0482 0.830594C72.0961 0.854154 72.159 0.861119 72.196 0.833377C72.3123 0.747372 72.4778 0.592013 72.6366 0.444974H73.0279L73.1305 3.00151L72.6844 3.0667C72.2835 1.99027 71.5966 0.740441 70.2106 0.740441C68.5823 0.740441 68.061 2.0735 68.061 3.98361C68.061 5.15576 68.2088 5.94089 68.6165 6.59979C69.001 7.22123 69.692 7.6027 70.3789 7.6027C72.0482 7.6027 72.9212 6.42917 72.9212 5.02398L73.4179 5.02397ZM11.2795 7.96432H7.08433V7.59257C7.97645 7.50795 8.19128 7.329 8.19128 6.65623V0.963346H8.1694L5.80636 7.96432H4.83898L2.37742 0.941152H2.35418V6.52723C2.35418 7.30126 2.72635 7.50795 3.69921 7.59257V7.96432H0.531616V7.59257C1.29786 7.52599 1.76581 7.34842 1.76581 6.52723V1.5737C1.76581 1.08681 1.53047 0.823246 0.531616 0.823246V0.450096H4.11243L5.95552 5.71436L7.7343 0.450096H11.2795V0.823246C10.2478 0.823246 10.0864 1.09651 10.0864 1.5945V6.65623C10.0864 7.37755 10.3313 7.50795 11.2795 7.59257L11.2795 7.96432ZM83.9113 7.59312C84.7774 7.59312 85.1975 7.22414 85.1975 6.53888V1.42166C84.6844 0.829346 84.4736 0.822411 83.9113 0.822411V0.450652H86.7395L90.9333 5.55678H90.9552V1.86416C90.9552 1.2011 90.6186 0.822411 89.6034 0.822411V0.450652H92.7299V0.822411C91.7844 0.822411 91.5436 1.26769 91.5436 1.86416V7.96488H90.5666L85.8091 2.16795H85.7858V6.53888C85.7858 7.23523 86.2305 7.59312 87.15 7.59312V7.96488H83.9113L83.9113 7.59312ZM99.9018 7.96432V7.59257C98.8824 7.59257 98.6498 7.40391 98.6498 6.56191V0.791343C99.9045 0.791343 100.448 0.92034 101.256 3.15366L101.566 3.1176L101.51 0.450096H93.8266L93.7691 3.1176L94.0784 3.15366C94.8829 0.92034 95.4289 0.791343 96.6822 0.791343V6.56191C96.6822 7.40391 96.4537 7.59257 95.433 7.59257V7.96432H99.9018ZM27.2274 7.96432V7.59257C26.2066 7.59257 25.9781 7.40391 25.9781 6.56191V0.791343C27.2328 0.791343 27.7774 0.92034 28.5847 3.15366L28.8953 3.1176L28.8351 0.450096H21.1535L21.096 3.1176L21.4053 3.15366C22.2126 0.92034 22.7558 0.791343 24.0105 0.791343V6.56191C24.0105 7.40391 23.782 7.59257 22.7613 7.59257V7.96432H27.2274ZM115.441 7.67704C116.385 7.67704 117.437 6.90717 117.437 4.20916C117.437 1.50975 116.385 0.741261 115.441 0.741261C114.499 0.741261 113.45 1.50975 113.45 4.20916C113.45 6.90717 114.499 7.67704 115.441 7.67704ZM111.367 4.20916C111.367 1.73447 113.578 0.325113 115.441 0.325113C117.306 0.325113 119.52 1.73447 119.52 4.20916C119.52 6.68245 117.306 8.09319 115.441 8.09319C113.578 8.09319 111.367 6.68245 111.367 4.20916ZM39.1612 7.67704C40.1053 7.67704 41.1575 6.90717 41.1575 4.20916C41.1575 1.50975 40.1053 0.741261 39.1612 0.741261C38.2198 0.741261 37.1676 1.50975 37.1676 4.20916C37.1676 6.90717 38.2198 7.67704 39.1612 7.67704ZM35.085 4.20916C35.085 1.73447 37.2989 0.325113 39.1612 0.325113C41.0248 0.325113 43.2373 1.73447 43.2373 4.20916C43.2373 6.68245 41.0248 8.09319 39.1612 8.09319C37.2989 8.09319 35.085 6.68245 35.085 4.20916ZM79.0488 7.67704C79.9902 7.67704 81.0396 6.90717 81.0396 4.20916C81.0396 1.50975 79.9902 0.741261 79.0488 0.741261C78.106 0.741261 77.0524 1.50975 77.0524 4.20916C77.0524 6.90717 78.106 7.67704 79.0488 7.67704ZM74.9713 4.20916C74.9713 1.73447 77.1852 0.325113 79.0488 0.325113C80.9124 0.325113 83.1235 1.73447 83.1235 4.20916C83.1235 6.68245 80.9124 8.09319 79.0488 8.09319C77.1852 8.09319 74.9713 6.68245 74.9713 4.20916ZM16.1661 7.67704C17.1102 7.67704 18.1597 6.90717 18.1597 4.20916C18.1597 1.50975 17.1102 0.741261 16.1661 0.741261C15.222 0.741261 14.1711 1.50975 14.1711 4.20916C14.1711 6.90717 15.222 7.67704 16.1661 7.67704ZM12.0899 4.20916C12.0899 1.73447 14.3038 0.325113 16.1661 0.325113C18.0297 0.325113 20.2422 1.73447 20.2422 4.20916C20.2422 6.68245 18.0297 8.09319 16.1661 8.09319C14.3038 8.09319 12.0899 6.68245 12.0899 4.20916ZM34.002 7.96432V7.59257C33.1154 7.59257 32.9047 7.35814 32.9047 6.78108V1.63611C32.9047 1.05767 33.1154 0.823246 34.002 0.823246V0.450096H29.8835V0.823246C30.7701 0.823246 30.9781 1.05767 30.9781 1.63611V6.78108C30.9781 7.35813 30.7701 7.59257 29.8835 7.59257V7.96432H34.002ZM127.711 7.96432H120.426V7.59257C121.357 7.55789 121.659 7.34981 121.659 6.76999V1.67634C121.659 1.06461 121.506 0.823246 120.426 0.823246V0.450096H124.972V0.823246C123.74 0.823246 123.586 1.10345 123.586 1.67634V6.63265C123.586 7.30265 123.918 7.53569 124.559 7.53569C126.116 7.53569 126.96 6.62433 127.375 5.16088H127.788L127.711 7.96432ZM105.66 3.94643C107.341 3.94643 107.812 3.45121 107.812 2.46633C107.812 1.67288 107.284 0.904397 106.486 0.904397C105.925 0.904397 105.66 1.16379 105.66 1.6271V3.94643ZM107.207 4.3487C108.194 4.41528 108.746 5.16573 108.948 5.8926C109.24 6.95239 109.443 7.09527 109.749 7.09527C109.981 7.09527 110.167 6.82755 110.167 6.31708H110.61C110.61 7.51419 109.951 8.09264 108.917 8.09264C107.719 8.09264 107.217 7.6099 107.117 6.12149C107.036 4.92992 106.768 4.4458 105.66 4.4458V6.55012C105.66 7.37409 105.976 7.59326 106.84 7.59326V7.96363H102.573V7.59326C103.617 7.59326 103.693 7.2104 103.693 6.55012V1.81853C103.693 1.01398 103.38 0.822554 102.573 0.822554V0.450795H106.775C108.779 0.450795 109.81 1.20818 109.81 2.42055C109.81 3.49283 108.766 4.22801 107.207 4.29876V4.3487ZM58.7956 7.58563C57.7352 7.58563 57.0086 6.86708 57.0086 6.0334C57.0086 5.20389 57.508 4.74612 58.6766 4.13855L61.0109 6.52862C60.4417 7.24439 59.6262 7.58563 58.7956 7.58563ZM59.072 0.977215C59.7356 0.977215 60.1311 1.47521 60.1311 1.88442C60.1311 2.47257 59.6754 2.92755 58.7915 3.35203C58.2346 2.79994 57.9281 2.43235 57.9281 1.88442C57.9281 1.37256 58.4672 0.977215 59.072 0.977215ZM63.4341 7.96432L61.8893 6.43151C62.1821 5.90162 62.3244 5.38976 62.3833 4.58521H61.6635C61.6512 5.09152 61.5623 5.53264 61.3844 5.92936L59.2745 3.82921C60.4567 3.19112 60.7974 2.621 60.7974 1.88442C60.7974 0.94809 59.9504 0.336349 59.0816 0.336349C58.1908 0.336349 57.2481 0.92312 57.2481 1.88442C57.2481 2.54332 57.5094 2.94559 58.1853 3.63639C56.7842 4.34246 56.304 5.14701 56.304 6.10969C56.304 7.31929 57.3575 8.24037 58.7696 8.24037C59.8601 8.24037 60.9342 7.76041 61.5035 7.03077L62.4161 7.96432H63.4341Z" fill="white"/>
</g>
<defs>
<clipPath id="clip0_36_759">
<rect width="132" height="52" fill="white" transform="translate(0.0371094 0.252441)"/>
</clipPath>
</defs>
</svg>
