<svg width="232" height="48" viewBox="0 0 232 48" fill="none" xmlns="http://www.w3.org/2000/svg">
<g clip-path="url(#clip0_36_795)">
<path d="M55.6062 47.582V41.5064H54.1841C52.6467 41.3917 51.4167 40.169 51.3398 38.6405V9.59988C51.4167 8.03321 52.6851 6.81044 54.2225 6.69581H55.6831V1.04053H36.8879V6.73402H38.2716C39.8475 6.84866 41.1159 8.07142 41.2312 9.63809V38.6023C41.1159 40.1308 39.9244 41.3153 38.3869 41.43H36.8495V47.5056L55.6062 47.582Z" fill="white"/>
<path d="M201.432 1.07861H186.481V6.81032H187.903C189.479 7.03959 190.67 8.37698 190.709 9.94365V38.755C190.632 40.2835 189.402 41.5063 187.864 41.5827H186.442V47.6201H201.97V41.5063H200.587C199.088 41.4298 197.858 40.3217 197.704 38.8315V17.8152L209.388 47.5819H219.266V9.56153C219.382 7.99487 220.727 6.77211 222.303 6.77211H223.533V1.07861H208.043V6.73389H209.542C211.08 6.7721 212.348 7.99488 212.425 9.52333V28.1705L201.432 1.07861Z" fill="white"/>
<path d="M149.275 41.5064C147.776 41.5064 147.584 40.9714 146.2 39.1755C146.2 39.1755 136.053 24.9609 134.438 22.5917C135.515 20.9869 144.624 7.80395 144.624 7.80395C145.008 7.11614 145.777 6.69581 146.584 6.73402H148.275V1.07874H132.555V6.77223H133.516C133.939 6.73402 134.323 6.92509 134.592 7.23078C135.092 7.84216 134.131 9.14134 133.9 9.48525L126.021 20.7958V9.52346C126.098 7.995 127.328 6.81044 128.865 6.73402H130.364V1.04053H111.262V6.73402H112.761C114.26 6.81044 115.451 8.03322 115.489 9.52346V38.6405C115.413 40.169 114.183 41.43 112.607 41.5064H111.146V47.582H130.403V41.5064H128.981C127.366 41.4682 126.059 40.2454 125.983 38.6405V25.9161C126.713 26.795 135.169 39.2901 135.169 39.2901C136.245 41.4682 134.669 41.4682 133.939 41.4682H132.939V47.5438H149.813V41.4682H149.39" fill="white"/>
<path d="M152.042 47.5437H183.329V35.5835H178.102V38.6786C177.986 40.2071 176.756 41.3916 175.219 41.468H166.763V25.916H170.145C171.644 26.1071 172.836 27.2916 173.028 28.7819V30.6542H178.14V16.0957H173.066V17.8916C173.105 19.3437 171.952 20.6046 170.491 20.6428H166.801V6.73389H174.719C176.257 6.7721 177.487 7.99488 177.602 9.52333V12.542H182.714V1.07861H152.196V6.77211H153.579C155.078 6.81032 156.308 7.95666 156.462 9.4469V38.7168C156.27 40.2071 155.04 41.3534 153.541 41.5063H152.08V47.5437" fill="white"/>
<path d="M26.1259 47.5819V41.5062H24.1657C22.5898 41.5062 21.3214 40.2453 21.3214 38.6786V6.73389H25.4341C27.0099 6.73389 28.3168 7.99487 28.3168 9.59975V13.6502H32.8522V1.07861H0.220093V13.6502H4.79397V9.59975C4.79397 8.03308 6.06236 6.73389 7.67667 6.73389H11.7893V38.6786C11.7893 40.2071 10.5594 41.5062 9.02192 41.5062H7.02325V47.5437L26.1259 47.5819Z" fill="white"/>
<path d="M64.4465 9.56166C64.3696 8.03321 63.1397 6.77223 61.5638 6.69581H60.1032V1.04053H75.1317L83.357 28.782L91.6207 1.04053H106.726V6.73402H105.304C103.766 6.81044 102.498 8.03321 102.421 9.59988V38.717C102.498 40.2454 103.728 41.43 105.265 41.4682H106.688V47.5056H89.622V41.4682H90.506C91.8897 41.3535 92.9275 40.1308 92.8122 38.7552V17.8535L84.0488 47.5056H79.6671L71.2112 18.0446V38.6787C71.0575 40.0544 72.0952 41.3153 73.4789 41.4682H74.363V47.5056H59.9879V41.4682H61.4485C62.9859 41.43 64.2543 40.2072 64.3312 38.6405L64.4465 9.56166Z" fill="white"/>
<path d="M228.376 3.37109C228.683 3.37109 228.837 3.29466 228.837 2.98897C228.837 2.68328 228.53 2.68327 228.261 2.68327H227.607V3.37109H228.376ZM227.607 5.16701H226.954V2.14832H228.376C228.645 2.11011 228.914 2.18653 229.183 2.30116C229.414 2.49222 229.567 2.79791 229.529 3.1036C229.529 3.63856 229.26 3.86783 228.722 3.94426L229.452 5.16701H228.683L228.03 3.94426H227.607V5.16701ZM226.07 3.7532C226.07 4.86133 226.992 5.74018 228.107 5.74018C229.221 5.74018 230.105 4.82312 230.105 3.71499C230.105 2.64507 229.221 1.7662 228.107 1.72799C226.992 1.72799 226.108 2.60686 226.07 3.71499C226.108 3.71499 226.108 3.71499 226.07 3.7532ZM225.339 3.7532C225.301 2.22475 226.531 1.00197 228.068 0.963762C229.606 0.925551 230.836 2.14832 230.874 3.67677C230.913 5.20523 229.683 6.428 228.145 6.46621C226.608 6.46621 225.378 5.24344 225.339 3.7532C225.378 3.7532 225.378 3.7532 225.339 3.7532Z" fill="white"/>
</g>
<defs>
<clipPath id="clip0_36_795">
<rect width="231" height="47" fill="white" transform="translate(0.0371094 0.752441)"/>
</clipPath>
</defs>
</svg>
