<svg width="216" height="48" viewBox="0 0 216 48" fill="none" xmlns="http://www.w3.org/2000/svg">
<g clip-path="url(#clip0_36_764)">
<mask id="mask0_36_764" style="mask-type:luminance" maskUnits="userSpaceOnUse" x="1" y="0" width="214" height="48">
<path d="M214.488 0.883789H1.17163V47.1216H214.488V0.883789Z" fill="white"/>
</mask>
<g mask="url(#mask0_36_764)">
<path d="M198.169 45.3433H137.943C136.259 45.3433 134.834 43.946 134.834 42.2946V5.58381C134.834 3.93245 136.259 2.53516 137.943 2.53516H198.169C199.852 2.53516 201.277 3.93245 201.277 5.58381V42.2946C201.277 43.946 199.852 45.3433 198.169 45.3433Z" stroke="white" stroke-width="2.014" stroke-miterlimit="10"/>
</g>
<mask id="mask1_36_764" style="mask-type:luminance" maskUnits="userSpaceOnUse" x="1" y="0" width="214" height="48">
<path d="M214.488 0.883789H1.17163V47.1216H214.488V0.883789Z" fill="white"/>
</mask>
<g mask="url(#mask1_36_764)">
<path d="M165.919 27.5596C165.919 33.2758 161.126 37.9758 155.298 37.9758C149.47 37.9758 144.678 33.2758 144.678 27.5596C144.678 21.8434 149.47 17.1434 155.298 17.1434C161.126 17.1434 165.919 21.8434 165.919 27.5596ZM191.434 27.5596C191.434 33.2758 186.641 37.9758 180.813 37.9758C174.985 37.9758 170.193 33.2758 170.193 27.5596C170.193 21.8434 174.985 17.1434 180.813 17.1434C186.641 17.1434 191.434 21.8434 191.434 27.5596ZM174.078 15.8731C174.078 19.1758 171.358 21.8434 167.991 21.8434C164.623 21.8434 161.904 19.1758 161.904 15.8731C161.904 12.5704 164.623 9.90283 167.991 9.90283C171.229 9.90283 174.078 12.5704 174.078 15.8731Z" stroke="white" stroke-width="1.945" stroke-miterlimit="10"/>
</g>
<mask id="mask2_36_764" style="mask-type:luminance" maskUnits="userSpaceOnUse" x="1" y="0" width="214" height="48">
<path d="M214.488 0.883789H1.17163V47.1216H214.488V0.883789Z" fill="white"/>
</mask>
<g mask="url(#mask2_36_764)">
<path d="M209.696 10.1567C212.056 10.1567 213.97 8.27996 213.97 5.96484C213.97 3.64972 212.056 1.77295 209.696 1.77295C207.335 1.77295 205.422 3.64972 205.422 5.96484C205.422 8.27996 207.335 10.1567 209.696 10.1567Z" stroke="white" stroke-width="0.862" stroke-miterlimit="10"/>
</g>
<mask id="mask3_36_764" style="mask-type:luminance" maskUnits="userSpaceOnUse" x="1" y="0" width="214" height="48">
<path d="M214.488 0.883789H1.17163V47.1216H214.488V0.883789Z" fill="white"/>
</mask>
<g mask="url(#mask3_36_764)">
<path d="M210.732 5.07574C210.732 4.82169 210.602 4.69466 210.473 4.56763C210.343 4.44061 210.084 4.44061 209.825 4.44061H208.789V5.96493H209.825C210.084 5.96493 210.343 5.8379 210.473 5.71088C210.602 5.45682 210.732 5.3298 210.732 5.07574ZM210.732 8.50547L209.696 6.85412H208.919V8.50547H207.882V3.29736H210.084C210.602 3.29736 211.12 3.42439 211.379 3.80547C211.638 4.05953 211.897 4.56763 211.897 5.07574C211.897 5.45682 211.768 5.8379 211.638 6.09196C211.509 6.34601 211.25 6.60007 210.861 6.72709L212.027 8.6325H210.732V8.50547Z" fill="white"/>
</g>
<mask id="mask4_36_764" style="mask-type:luminance" maskUnits="userSpaceOnUse" x="1" y="0" width="214" height="48">
<path d="M214.488 0.883789H1.17163V47.1216H214.488V0.883789Z" fill="white"/>
</mask>
<g mask="url(#mask4_36_764)">
<path d="M37.8252 35.4351C36.9186 37.9756 35.6234 40.1351 33.9397 41.7864C32.256 43.4378 30.3132 44.708 27.8524 45.5972C25.521 46.4864 22.8011 46.8675 19.9518 46.8675C14.1234 46.8675 9.46079 45.2162 6.09332 41.7864C2.72585 38.4837 1.04211 33.4026 1.04211 26.6702V1.01074H10.6265V26.6702C10.6265 30.354 11.4036 33.1486 13.0873 35.054C14.771 36.9594 17.1024 37.8486 19.9518 37.8486C22.9307 37.8486 25.1325 36.9594 26.8162 35.181C28.4999 33.4026 29.2771 30.608 29.2771 27.0513V1.01074H38.8614V26.5432C39.2499 29.9729 38.7319 32.8945 37.8252 35.4351Z" fill="white"/>
</g>
<mask id="mask5_36_764" style="mask-type:luminance" maskUnits="userSpaceOnUse" x="1" y="0" width="214" height="48">
<path d="M214.488 0.883789H1.17163V47.1216H214.488V0.883789Z" fill="white"/>
</mask>
<g mask="url(#mask5_36_764)">
<path d="M37.8252 35.4351C36.9186 37.9756 35.6234 40.1351 33.9397 41.7864C32.256 43.4378 30.3132 44.708 27.8524 45.5972C25.521 46.4864 22.8011 46.8675 19.9518 46.8675C14.1234 46.8675 9.46079 45.2162 6.09332 41.7864C2.72585 38.4837 1.04211 33.4026 1.04211 26.6702V1.01074H10.6265V26.6702C10.6265 30.354 11.4036 33.1486 13.0873 35.054C14.771 36.9594 17.1024 37.8486 19.9518 37.8486C22.9307 37.8486 25.1325 36.9594 26.8162 35.181C28.4999 33.4026 29.2771 30.608 29.2771 27.0513V1.01074H38.8614V26.5432C39.2499 29.9729 38.7319 32.8945 37.8252 35.4351Z" stroke="white" stroke-width="0.18" stroke-miterlimit="10"/>
</g>
<path d="M73.5722 1.01074L55.8282 20.6999V1.01074H46.3734V46.2324H55.8282V32.3864L60.8794 26.9243L74.4788 46.2324H85.8764L67.3553 20.1918L85.0993 1.01074H73.5722Z" fill="white"/>
<path d="M74.4788 46.2324L60.8794 26.9243L55.8282 32.3864V46.2324H46.3734V1.01074H55.8282V20.6999L73.5722 1.01074H85.0993L67.3553 20.1918L85.8764 46.2324H74.4788Z" stroke="white" stroke-width="0.18" stroke-miterlimit="10"/>
<path d="M92.8705 1.01074V46.2324H102.455V28.7026H123.178V19.6837H102.455V9.90263H125.898V1.01074H92.8705Z" fill="white"/>
<path d="M102.455 9.90263V19.6837H123.178V28.7026H102.455V46.2324H92.8705V1.01074H125.898V9.90263H102.455Z" stroke="white" stroke-width="0.18" stroke-miterlimit="10"/>
<path d="M186.253 13.7139L183.404 21.0814M182.626 22.7328L182.367 23.4949M181.59 25.2733L179.129 31.3706M178.352 33.4031L178.093 33.9112M177.446 35.9436L175.373 41.0247M149.599 13.7139L152.449 21.0814M153.226 22.7328L153.485 23.4949M154.132 25.2733L156.593 31.3706M157.37 33.4031L157.629 33.9112M158.407 35.9436L160.479 41.0247" stroke="white" stroke-width="0.408" stroke-miterlimit="10" stroke-linecap="round"/>
</g>
<defs>
<clipPath id="clip0_36_764">
<rect width="215" height="47" fill="white" transform="translate(0.0371094 0.752441)"/>
</clipPath>
</defs>
</svg>
