<svg width="240" height="240" viewBox="0 0 240 240" fill="none" xmlns="http://www.w3.org/2000/svg">
<path d="M120 240C186.274 240 240 186.274 240 120C240 53.7258 186.274 0 120 0C53.7258 0 0 53.7258 0 120C0 186.274 53.7258 240 120 240Z" fill="#20273F"/>
<path d="M211.9 122.852C211.9 72.1884 170.674 30.9623 120.011 30.9623C69.3474 30.9623 28.1213 72.1884 28.1213 122.852C28.1213 173.515 69.3474 214.741 120.011 214.741C170.674 214.741 211.9 173.515 211.9 122.852ZM33.1464 122.852C33.1464 74.9522 72.1112 35.9874 120.011 35.9874C167.91 35.9874 206.875 74.9522 206.875 122.852C206.875 170.751 167.91 209.716 120.011 209.716C72.1112 209.716 33.1464 170.751 33.1464 122.852Z" fill="#291B4A"/>
<path d="M199.981 122.852C199.981 78.7612 164.111 42.8818 120.011 42.8818C75.9102 42.8818 40.0409 78.7512 40.0409 122.852C40.0409 166.952 75.9102 202.822 120.011 202.822C164.111 202.822 199.981 166.952 199.981 122.852ZM45.066 122.852C45.066 81.5251 78.6841 47.907 120.011 47.907C161.337 47.907 194.955 81.5251 194.955 122.852C194.955 164.178 161.337 197.796 120.011 197.796C78.6841 197.796 45.066 164.178 45.066 122.852Z" fill="#291B4A"/>
<path d="M154.403 122.852C154.403 103.887 138.976 88.4597 120.011 88.4597C101.046 88.4597 85.6188 103.887 85.6188 122.852C85.6188 141.817 101.046 157.244 120.011 157.244C138.976 157.244 154.403 141.817 154.403 122.852ZM90.644 122.852C90.644 106.661 103.82 93.4848 120.011 93.4848C136.202 93.4848 149.378 106.661 149.378 122.852C149.378 139.043 136.202 152.219 120.011 152.219C103.82 152.219 90.644 139.043 90.644 122.852Z" fill="#291B4A"/>
<path d="M143.026 122.852C143.026 110.158 132.704 99.8367 120.011 99.8367C107.317 99.8367 96.9955 110.158 96.9955 122.852C96.9955 135.545 107.317 145.867 120.011 145.867C132.704 145.867 143.026 135.545 143.026 122.852ZM102.021 122.852C102.021 112.932 110.091 104.862 120.011 104.862C129.93 104.862 138.001 112.932 138.001 122.852C138.001 132.771 129.93 140.842 120.011 140.842C110.091 140.842 102.021 132.771 102.021 122.852Z" fill="#291B4A"/>
<path d="M136.604 68.5704C136.604 59.4146 129.156 51.9774 120.011 51.9774C110.865 51.9774 103.418 59.4247 103.418 68.5704C103.418 77.7161 110.865 85.1634 120.011 85.1634C129.156 85.1634 136.604 77.7161 136.604 68.5704ZM108.433 68.5704C108.433 62.1885 113.629 57.0025 120.001 57.0025C126.373 57.0025 131.569 62.1985 131.569 68.5704C131.569 74.9422 126.373 80.1382 120.001 80.1382C113.629 80.1382 108.433 74.9422 108.433 68.5704Z" fill="#291B4A"/>
<path d="M136.604 177.123C136.604 167.967 129.156 160.53 120.011 160.53C110.865 160.53 103.418 167.977 103.418 177.123C103.418 186.269 110.865 193.716 120.011 193.716C129.156 193.716 136.604 186.269 136.604 177.123ZM108.433 177.123C108.433 170.741 113.629 165.555 120.001 165.555C126.373 165.555 131.569 170.751 131.569 177.123C131.569 183.495 126.373 188.691 120.001 188.691C113.629 188.691 108.433 183.495 108.433 177.123Z" fill="#291B4A"/>
<path d="M174.292 139.445C183.448 139.445 190.885 131.997 190.885 122.852C190.885 113.706 183.438 106.259 174.292 106.259C165.146 106.259 157.699 113.706 157.699 122.852C157.699 131.997 165.146 139.445 174.292 139.445ZM174.292 111.274C180.674 111.274 185.86 116.47 185.86 122.842C185.86 129.214 180.664 134.41 174.292 134.41C167.92 134.41 162.724 129.214 162.724 122.842C162.724 116.47 167.92 111.274 174.292 111.274Z" fill="#291B4A"/>
<path d="M82.3324 122.852C82.3324 113.696 74.8852 106.259 65.7394 106.259C56.5937 106.259 49.1465 113.706 49.1465 122.852C49.1465 131.997 56.5937 139.445 65.7394 139.445C74.8852 139.445 82.3324 131.997 82.3324 122.852ZM54.1615 122.852C54.1615 116.47 59.3575 111.284 65.7294 111.284C72.1012 111.284 77.2972 116.48 77.2972 122.852C77.2972 129.224 72.1012 134.42 65.7294 134.42C59.3575 134.42 54.1615 129.224 54.1615 122.852Z" fill="#291B4A"/>
<path d="M170.131 96.1984C176.604 89.7261 176.604 79.1934 170.131 72.7311C163.659 66.2587 153.126 66.2587 146.664 72.7311C140.192 79.2035 140.192 89.7361 146.664 96.1984C149.9 99.4346 154.151 101.053 158.403 101.053C162.654 101.053 166.905 99.4346 170.141 96.1984H170.131ZM150.212 76.2788C152.473 74.0276 155.428 72.8919 158.393 72.8919C161.357 72.8919 164.322 74.0175 166.574 76.2788C171.086 80.7914 171.086 88.1281 166.574 92.6406C162.061 97.1532 154.724 97.1532 150.212 92.6406C145.699 88.1281 145.699 80.7914 150.212 76.2788Z" fill="#291B4A"/>
<path d="M93.3675 172.962C99.8398 166.49 99.8398 155.957 93.3675 149.495C90.2318 146.359 86.0609 144.631 81.6288 144.631C77.1966 144.631 73.0258 146.359 69.8901 149.495C66.7544 152.631 65.0258 156.801 65.0258 161.234C65.0258 165.666 66.7544 169.837 69.8901 172.972C73.0258 176.108 77.1966 177.837 81.6288 177.837C86.0609 177.837 90.2318 176.108 93.3675 172.972V172.962ZM70.0609 161.224C70.0609 158.128 71.267 155.224 73.4479 153.043C75.6288 150.862 78.5434 149.656 81.6288 149.656C84.7142 149.656 87.6288 150.862 89.8097 153.043C94.3223 157.555 94.3223 164.892 89.8097 169.404C87.6188 171.585 84.7142 172.791 81.6288 172.791C78.5434 172.791 75.6288 171.585 73.4479 169.404C71.267 167.224 70.0609 164.309 70.0609 161.224Z" fill="#291B4A"/>
<path d="M170.131 172.962C176.604 166.49 176.604 155.957 170.131 149.495C166.996 146.359 162.825 144.631 158.393 144.631C153.96 144.631 149.79 146.359 146.654 149.495C140.182 155.967 140.182 166.5 146.654 172.962C149.79 176.098 153.96 177.827 158.393 177.827C162.825 177.827 166.996 176.098 170.131 172.962ZM150.212 153.043C152.393 150.862 155.307 149.656 158.393 149.656C161.478 149.656 164.393 150.862 166.573 153.043C171.086 157.555 171.086 164.892 166.573 169.404C164.393 171.595 161.478 172.791 158.393 172.791C155.307 172.791 152.393 171.585 150.212 169.404C145.699 164.892 145.699 157.555 150.212 153.043Z" fill="#291B4A"/>
<path d="M93.3675 96.1985C99.8398 89.7261 99.8398 79.1934 93.3675 72.7311C86.8951 66.2688 76.3625 66.2588 69.9002 72.7311C66.7645 75.8668 65.0358 80.0377 65.0358 84.4698C65.0358 88.902 66.7645 93.0728 69.9002 96.2085C73.1364 99.4447 77.3876 101.063 81.6389 101.063C85.8901 101.063 90.1414 99.4447 93.3775 96.2085L93.3675 96.1985ZM70.061 84.4698C70.061 81.3743 71.267 78.4698 73.4479 76.2889C75.6991 74.0377 78.664 72.902 81.6288 72.902C84.5936 72.902 87.5585 74.0276 89.8097 76.2889C94.3223 80.8015 94.3223 88.1382 89.8097 92.6507C85.2972 97.1633 77.9604 97.1633 73.4479 92.6507C71.267 90.4698 70.061 87.5552 70.061 84.4698Z" fill="#291B4A"/>
<path d="M211.9 118.832C211.9 68.1684 170.674 26.9423 120.011 26.9423C69.3474 26.9423 28.1213 68.1684 28.1213 118.832C28.1213 169.495 69.3474 210.721 120.011 210.721C170.674 210.721 211.9 169.495 211.9 118.832ZM33.1464 118.832C33.1464 70.9322 72.1112 31.9674 120.011 31.9674C167.91 31.9674 206.875 70.9322 206.875 118.832C206.875 166.731 167.91 205.696 120.011 205.696C72.1112 205.696 33.1464 166.731 33.1464 118.832Z" fill="#F9B087"/>
<path d="M199.981 118.832C199.981 74.7412 164.111 38.8618 120.011 38.8618C75.9102 38.8618 40.0409 74.7312 40.0409 118.832C40.0409 162.932 75.9102 198.802 120.011 198.802C164.111 198.802 199.981 162.932 199.981 118.832ZM45.066 118.832C45.066 77.505 78.6841 43.8869 120.011 43.8869C161.337 43.8869 194.955 77.505 194.955 118.832C194.955 160.158 161.337 193.776 120.011 193.776C78.6841 193.776 45.066 160.158 45.066 118.832Z" fill="#D3D3D3"/>
<path d="M154.403 118.832C154.403 99.8668 138.976 84.4397 120.011 84.4397C101.046 84.4397 85.6188 99.8668 85.6188 118.832C85.6188 137.796 101.046 153.224 120.011 153.224C138.976 153.224 154.403 137.796 154.403 118.832ZM90.644 118.832C90.644 102.641 103.82 89.4648 120.011 89.4648C136.202 89.4648 149.378 102.641 149.378 118.832C149.378 135.023 136.202 148.198 120.011 148.198C103.82 148.198 90.644 135.023 90.644 118.832Z" fill="#D3D3D3"/>
<path d="M199.981 118.832C199.981 74.7412 164.111 38.8618 120.011 38.8618C75.9102 38.8618 40.0409 74.7312 40.0409 118.832C40.0409 162.932 75.9102 198.802 120.011 198.802C164.111 198.802 199.981 162.932 199.981 118.832ZM41.5484 118.832C41.5484 75.5653 76.7444 40.3694 120.011 40.3694C163.277 40.3694 198.473 75.5653 198.473 118.832C198.473 162.098 163.277 197.294 120.011 197.294C76.7444 197.294 41.5484 162.098 41.5484 118.832Z" fill="#EBE7F2"/>
<path d="M196.463 118.832C196.463 76.6809 162.171 42.3794 120.011 42.3794C77.8499 42.3794 43.5584 76.6709 43.5584 118.832C43.5584 160.992 77.8499 195.284 120.011 195.284C162.171 195.284 196.463 160.992 196.463 118.832ZM45.066 118.832C45.066 77.505 78.6841 43.8869 120.011 43.8869C161.337 43.8869 194.955 77.505 194.955 118.832C194.955 160.158 161.337 193.776 120.011 193.776C78.6841 193.776 45.066 160.158 45.066 118.832Z" fill="#EBE7F2"/>
<path d="M150.885 118.832C150.885 101.807 137.036 87.9573 120.011 87.9573C102.986 87.9573 89.1364 101.807 89.1364 118.832C89.1364 135.857 102.986 149.706 120.011 149.706C137.036 149.706 150.885 135.857 150.885 118.832ZM90.6439 118.832C90.6439 102.641 103.82 89.4648 120.011 89.4648C136.202 89.4648 149.378 102.641 149.378 118.832C149.378 135.023 136.202 148.198 120.011 148.198C103.82 148.198 90.6439 135.023 90.6439 118.832Z" fill="#EBE7F2"/>
<path d="M154.403 118.832C154.403 99.8668 138.976 84.4397 120.011 84.4397C101.046 84.4397 85.6188 99.8668 85.6188 118.832C85.6188 137.796 101.046 153.224 120.011 153.224C138.976 153.224 154.403 137.796 154.403 118.832ZM87.1264 118.832C87.1264 100.701 101.88 85.9472 120.011 85.9472C138.141 85.9472 152.895 100.701 152.895 118.832C152.895 136.962 138.141 151.716 120.011 151.716C101.88 151.716 87.1264 136.962 87.1264 118.832Z" fill="#EBE7F2"/>
<path d="M143.026 118.832C143.026 106.138 132.704 95.8167 120.011 95.8167C107.317 95.8167 96.9955 106.138 96.9955 118.832C96.9955 131.525 107.317 141.847 120.011 141.847C132.704 141.847 143.026 131.525 143.026 118.832ZM102.021 118.832C102.021 108.912 110.091 100.842 120.011 100.842C129.93 100.842 138.001 108.912 138.001 118.832C138.001 128.751 129.93 136.822 120.011 136.822C110.091 136.822 102.021 128.751 102.021 118.832Z" fill="#F9B087"/>
<path d="M211.9 118.832C211.9 68.1684 170.674 26.9423 120.011 26.9423C69.3474 26.9423 28.1213 68.1684 28.1213 118.832C28.1213 169.495 69.3474 210.721 120.011 210.721C170.674 210.721 211.9 169.495 211.9 118.832ZM29.6288 118.832C29.6288 68.9925 70.1715 28.4498 120.011 28.4498C169.85 28.4498 210.393 68.9925 210.393 118.832C210.393 168.671 169.85 209.214 120.011 209.214C70.1715 209.214 29.6288 168.671 29.6288 118.832Z" fill="#FF8639"/>
<path d="M208.383 118.832C208.383 70.1081 168.734 30.4598 120.011 30.4598C71.2871 30.4598 31.6389 70.1081 31.6389 118.832C31.6389 167.555 71.2871 207.204 120.011 207.204C168.734 207.204 208.383 167.555 208.383 118.832ZM33.1464 118.832C33.1464 70.9322 72.1112 31.9674 120.011 31.9674C167.91 31.9674 206.875 70.9322 206.875 118.832C206.875 166.731 167.91 205.696 120.011 205.696C72.1112 205.696 33.1464 166.731 33.1464 118.832Z" fill="#FF8639"/>
<path d="M139.508 118.832C139.508 108.078 130.764 99.3342 120.011 99.3342C109.257 99.3342 100.513 108.078 100.513 118.832C100.513 129.585 109.257 138.329 120.011 138.329C130.764 138.329 139.508 129.585 139.508 118.832ZM102.021 118.832C102.021 108.912 110.091 100.842 120.011 100.842C129.93 100.842 138.001 108.912 138.001 118.832C138.001 128.751 129.93 136.822 120.011 136.822C110.091 136.822 102.021 128.751 102.021 118.832Z" fill="#FF8639"/>
<path d="M143.026 118.832C143.026 106.138 132.704 95.8167 120.011 95.8167C107.317 95.8167 96.9955 106.138 96.9955 118.832C96.9955 131.525 107.317 141.847 120.011 141.847C132.704 141.847 143.026 131.525 143.026 118.832ZM98.5031 118.832C98.5031 106.972 108.151 97.3242 120.011 97.3242C131.87 97.3242 141.518 106.972 141.518 118.832C141.518 130.691 131.87 140.339 120.011 140.339C108.151 140.339 98.5031 130.691 98.5031 118.832Z" fill="#FF8639"/>
<path d="M136.604 64.5502C136.604 55.3945 129.156 47.9573 120.011 47.9573C110.865 47.9573 103.418 55.4045 103.418 64.5502C103.418 73.696 110.865 81.1432 120.011 81.1432C129.156 81.1432 136.604 73.696 136.604 64.5502ZM108.433 64.5502C108.433 58.1683 113.629 52.9824 120.001 52.9824C126.373 52.9824 131.569 58.1784 131.569 64.5502C131.569 70.9221 126.373 76.1181 120.001 76.1181C113.629 76.1181 108.433 70.9221 108.433 64.5502Z" fill="#65C1D6"/>
<path d="M136.604 173.103C136.604 163.947 129.156 156.51 120.011 156.51C110.865 156.51 103.418 163.957 103.418 173.103C103.418 182.249 110.865 189.696 120.011 189.696C129.156 189.696 136.604 182.249 136.604 173.103ZM108.433 173.103C108.433 166.721 113.629 161.535 120.001 161.535C126.373 161.535 131.569 166.731 131.569 173.103C131.569 179.475 126.373 184.671 120.001 184.671C113.629 184.671 108.433 179.475 108.433 173.103Z" fill="#65C1D6"/>
<path d="M174.292 135.425C183.448 135.425 190.885 127.977 190.885 118.832C190.885 109.686 183.438 102.239 174.292 102.239C165.146 102.239 157.699 109.686 157.699 118.832C157.699 127.977 165.146 135.425 174.292 135.425ZM174.292 107.254C180.674 107.254 185.86 112.45 185.86 118.822C185.86 125.194 180.664 130.39 174.292 130.39C167.92 130.39 162.724 125.194 162.724 118.822C162.724 112.45 167.92 107.254 174.292 107.254Z" fill="#65C1D6"/>
<path d="M82.3324 118.832C82.3324 109.676 74.8852 102.239 65.7394 102.239C56.5937 102.239 49.1465 109.686 49.1465 118.832C49.1465 127.977 56.5937 135.425 65.7394 135.425C74.8852 135.425 82.3324 127.977 82.3324 118.832ZM54.1615 118.832C54.1615 112.45 59.3575 107.264 65.7294 107.264C72.1012 107.264 77.2972 112.46 77.2972 118.832C77.2972 125.204 72.1012 130.4 65.7294 130.4C59.3575 130.4 54.1615 125.204 54.1615 118.832Z" fill="#65C1D6"/>
<path d="M170.131 92.1784C176.604 85.7061 176.604 75.1734 170.131 68.7111C163.659 62.2387 153.126 62.2387 146.664 68.7111C140.192 75.1834 140.192 85.7161 146.664 92.1784C149.8 95.3141 153.97 97.0427 158.403 97.0427C162.835 97.0427 167.006 95.3141 170.141 92.1784H170.131ZM150.212 72.2588C152.473 70.0076 155.428 68.8719 158.393 68.8719C161.357 68.8719 164.322 69.9975 166.573 72.2588C171.086 76.7714 171.086 84.1081 166.573 88.6206C164.393 90.8116 161.478 92.0076 158.393 92.0076C155.307 92.0076 152.393 90.8015 150.212 88.6206C145.699 84.1081 145.699 76.7714 150.212 72.2588Z" fill="#65C1D6"/>
<path d="M93.3675 168.942C99.8398 162.47 99.8398 151.937 93.3675 145.475C86.8951 139.013 76.3625 139.003 69.9002 145.475C66.7645 148.611 65.0358 152.781 65.0358 157.214C65.0358 161.646 66.7645 165.817 69.9002 168.952C73.1364 172.188 77.3876 173.807 81.6389 173.807C85.8901 173.807 90.1414 172.188 93.3775 168.952L93.3675 168.942ZM70.061 157.204C70.061 154.108 71.267 151.204 73.4479 149.023C75.6991 146.771 78.664 145.636 81.6288 145.636C84.5936 145.636 87.5585 146.761 89.8097 149.023C94.3223 153.535 94.3223 160.872 89.8097 165.384C85.2972 169.897 77.9604 169.897 73.4479 165.384C71.267 163.204 70.061 160.289 70.061 157.204Z" fill="#65C1D6"/>
<path d="M170.131 168.942C176.604 162.47 176.604 151.937 170.131 145.475C163.659 139.003 153.126 139.003 146.664 145.475C140.192 151.947 140.192 162.48 146.664 168.942C149.9 172.178 154.151 173.796 158.403 173.796C162.654 173.796 166.905 172.178 170.141 168.942H170.131ZM150.212 149.023C152.473 146.771 155.428 145.636 158.393 145.636C161.357 145.636 164.322 146.761 166.573 149.023C171.086 153.535 171.086 160.872 166.573 165.384C162.061 169.897 154.724 169.897 150.212 165.384C145.699 160.872 145.699 153.535 150.212 149.023Z" fill="#65C1D6"/>
<path d="M93.3675 92.1784C99.8398 85.7061 99.8398 75.1734 93.3675 68.7111C86.8951 62.2387 76.3625 62.2387 69.9002 68.7111C66.7645 71.8468 65.0358 76.0176 65.0358 80.4498C65.0358 84.8819 66.7645 89.0528 69.9002 92.1885C73.0359 95.3242 77.2067 97.0528 81.6389 97.0528C86.071 97.0528 90.2419 95.3242 93.3775 92.1885L93.3675 92.1784ZM73.4479 88.6307C71.267 86.4498 70.061 83.5352 70.061 80.4498C70.061 77.3643 71.267 74.4498 73.4479 72.2689C75.7092 70.0176 78.664 68.8819 81.6288 68.8819C84.5936 68.8819 87.5585 70.0076 89.8097 72.2689C94.3223 76.7814 94.3223 84.1181 89.8097 88.6307C87.6188 90.8116 84.7142 92.0176 81.6288 92.0176C78.5434 92.0176 75.6288 90.8116 73.4479 88.6307Z" fill="#65C1D6"/>
<path d="M133.086 64.5502C133.086 57.3342 127.217 51.4749 120.011 51.4749C112.805 51.4749 106.935 57.3442 106.935 64.5502C106.935 71.7563 112.805 77.6256 120.011 77.6256C127.217 77.6256 133.086 71.7563 133.086 64.5502ZM108.433 64.5502C108.433 58.1683 113.629 52.9824 120.001 52.9824C126.373 52.9824 131.569 58.1784 131.569 64.5502C131.569 70.9221 126.373 76.1181 120.001 76.1181C113.629 76.1181 108.433 70.9221 108.433 64.5502Z" fill="#149CB2"/>
<path d="M136.604 64.5502C136.604 55.3945 129.156 47.9573 120.011 47.9573C110.865 47.9573 103.418 55.4045 103.418 64.5502C103.418 73.696 110.865 81.1432 120.011 81.1432C129.156 81.1432 136.604 73.696 136.604 64.5502ZM104.915 64.5502C104.915 56.2286 111.689 49.4648 120.001 49.4648C128.312 49.4648 135.086 56.2387 135.086 64.5502C135.086 72.8618 128.312 79.6357 120.001 79.6357C111.689 79.6357 104.915 72.8618 104.915 64.5502Z" fill="#149CB2"/>
<path d="M136.604 173.103C136.604 163.947 129.156 156.51 120.011 156.51C110.865 156.51 103.418 163.957 103.418 173.103C103.418 182.249 110.865 189.696 120.011 189.696C129.156 189.696 136.604 182.249 136.604 173.103ZM104.915 173.103C104.915 164.781 111.689 158.018 120.001 158.018C128.312 158.018 135.086 164.792 135.086 173.103C135.086 181.415 128.312 188.189 120.001 188.189C111.689 188.189 104.915 181.415 104.915 173.103Z" fill="#149CB2"/>
<path d="M133.086 173.103C133.086 165.887 127.217 160.028 120.011 160.028C112.805 160.028 106.935 165.897 106.935 173.103C106.935 180.309 112.805 186.178 120.011 186.178C127.217 186.178 133.086 180.309 133.086 173.103ZM108.433 173.103C108.433 166.721 113.629 161.535 120.001 161.535C126.373 161.535 131.569 166.731 131.569 173.103C131.569 179.475 126.373 184.671 120.001 184.671C113.629 184.671 108.433 179.475 108.433 173.103Z" fill="#149CB2"/>
<path d="M174.292 135.425C183.448 135.425 190.885 127.977 190.885 118.832C190.885 109.686 183.438 102.239 174.292 102.239C165.146 102.239 157.699 109.686 157.699 118.832C157.699 127.977 165.146 135.425 174.292 135.425ZM174.292 103.736C182.614 103.736 189.378 110.51 189.378 118.822C189.378 127.133 182.604 133.907 174.292 133.907C165.981 133.907 159.207 127.133 159.207 118.822C159.207 110.51 165.981 103.736 174.292 103.736Z" fill="#149CB2"/>
<path d="M174.292 131.907C181.508 131.907 187.368 126.038 187.368 118.832C187.368 111.626 181.498 105.756 174.292 105.756C167.086 105.756 161.217 111.626 161.217 118.832C161.217 126.038 167.086 131.907 174.292 131.907ZM174.292 107.254C180.674 107.254 185.86 112.45 185.86 118.822C185.86 125.194 180.664 130.39 174.292 130.39C167.92 130.39 162.724 125.194 162.724 118.822C162.724 112.45 167.92 107.254 174.292 107.254Z" fill="#149CB2"/>
<path d="M82.3324 118.832C82.3324 109.676 74.8852 102.239 65.7394 102.239C56.5937 102.239 49.1465 109.686 49.1465 118.832C49.1465 127.977 56.5937 135.425 65.7394 135.425C74.8852 135.425 82.3324 127.977 82.3324 118.832ZM50.6439 118.832C50.6439 110.51 57.4178 103.746 65.7294 103.746C74.0409 103.746 80.8148 110.52 80.8148 118.832C80.8148 127.143 74.0409 133.917 65.7294 133.917C57.4178 133.917 50.6439 127.143 50.6439 118.832Z" fill="#149CB2"/>
<path d="M78.8148 118.832C78.8148 111.616 72.9454 105.756 65.7394 105.756C58.5334 105.756 52.664 111.626 52.664 118.832C52.664 126.038 58.5334 131.907 65.7394 131.907C72.9454 131.907 78.8148 126.038 78.8148 118.832ZM54.1615 118.832C54.1615 112.45 59.3575 107.264 65.7294 107.264C72.1012 107.264 77.2972 112.46 77.2972 118.832C77.2972 125.204 72.1012 130.4 65.7294 130.4C59.3575 130.4 54.1615 125.204 54.1615 118.832Z" fill="#149CB2"/>
<path d="M169.056 69.7764C174.935 75.6558 174.935 85.2337 169.056 91.1131C166.202 93.9674 162.413 95.5352 158.383 95.5352C154.352 95.5352 150.563 93.9674 147.709 91.1131C141.83 85.2337 141.83 75.6558 147.709 69.7764C150.553 66.9322 154.342 65.3643 158.383 65.3643V63.8568C154.131 63.8568 149.88 65.4749 146.644 68.7111C140.172 75.1834 140.172 85.7161 146.644 92.1784C149.78 95.3141 153.95 97.0427 158.383 97.0427C162.815 97.0427 166.986 95.3141 170.121 92.1784C176.594 85.7061 176.594 75.1734 170.121 68.7111C166.885 65.4749 162.634 63.8568 158.383 63.8568V65.3643C162.413 65.3643 166.212 66.9322 169.056 69.7764Z" fill="#149CB2"/>
<path d="M149.136 71.1934C144.041 76.2889 144.041 84.5904 149.136 89.6859C151.609 92.1582 154.895 93.515 158.383 93.515C161.87 93.515 165.167 92.1582 167.629 89.6859C170.091 87.2236 171.458 83.9371 171.458 80.4396C171.458 76.9421 170.101 73.6557 167.629 71.1934C165.157 68.7311 161.88 67.3643 158.383 67.3643C154.885 67.3643 151.599 68.721 149.136 71.1934ZM166.574 88.6306C164.393 90.8215 161.478 92.0175 158.393 92.0175C155.307 92.0175 152.393 90.8115 150.212 88.6306C145.699 84.118 145.699 76.7813 150.212 72.2688C152.473 70.0175 155.428 68.8818 158.393 68.8818C161.358 68.8818 164.322 70.0075 166.574 72.2688C171.086 76.7813 171.086 84.118 166.574 88.6306Z" fill="#149CB2"/>
<path d="M93.3675 168.942C99.8398 162.47 99.8398 151.937 93.3675 145.475C90.1313 142.239 85.88 140.621 81.6288 140.621C77.3775 140.621 73.1263 142.239 69.8901 145.475C66.7544 148.611 65.0258 152.781 65.0258 157.214C65.0258 161.646 66.7544 165.817 69.8901 168.952C73.1263 172.188 77.3775 173.807 81.6288 173.807C85.88 173.807 90.1313 172.188 93.3675 168.952V168.942ZM66.5434 157.204C66.5434 153.173 68.1112 149.384 70.9655 146.53C73.8097 143.686 77.5986 142.118 81.6388 142.118C85.679 142.118 89.468 143.686 92.3122 146.53C95.1564 149.374 96.7243 153.163 96.7243 157.204C96.7243 161.244 95.1564 165.033 92.3122 167.877C89.468 170.721 85.679 172.289 81.6388 172.289C77.5986 172.289 73.8097 170.721 70.9655 167.877C68.1112 165.023 66.5434 161.234 66.5434 157.204Z" fill="#149CB2"/>
<path d="M90.8751 166.46C95.9705 161.364 95.9705 153.063 90.8751 147.967C88.4027 145.505 85.1263 144.138 81.6288 144.138C78.1313 144.138 74.8449 145.495 72.3826 147.967C69.9102 150.44 68.5534 153.726 68.5534 157.214C68.5534 160.701 69.9102 163.987 72.3826 166.46C74.8549 168.922 78.1313 170.289 81.6288 170.289C85.1263 170.289 88.4128 168.932 90.8751 166.46ZM70.061 157.204C70.061 154.108 71.267 151.204 73.4479 149.023C75.6992 146.771 78.664 145.636 81.6288 145.636C84.5936 145.636 87.5585 146.761 89.8097 149.023C94.3223 153.535 94.3223 160.872 89.8097 165.384C87.5585 167.646 84.5936 168.771 81.6288 168.771C78.664 168.771 75.6992 167.646 73.4479 165.384C71.267 163.204 70.061 160.289 70.061 157.204Z" fill="#149CB2"/>
<path d="M169.056 146.54C171.9 149.384 173.468 153.173 173.468 157.214C173.468 161.254 171.9 165.043 169.056 167.887C166.212 170.731 162.423 172.299 158.383 172.299C154.342 172.299 150.553 170.731 147.709 167.887C144.865 165.043 143.297 161.254 143.297 157.214C143.297 153.173 144.865 149.384 147.709 146.54C150.553 143.696 154.342 142.128 158.383 142.128V140.621C154.131 140.621 149.88 142.239 146.644 145.475C140.172 151.947 140.172 162.48 146.644 168.942C149.88 172.178 154.131 173.796 158.383 173.796C162.634 173.796 166.885 172.178 170.121 168.942C176.594 162.47 176.594 151.937 170.121 145.475C166.885 142.239 162.634 140.621 158.383 140.621V142.128C162.413 142.128 166.212 143.696 169.056 146.54Z" fill="#149CB2"/>
<path d="M149.136 147.957C144.041 153.053 144.041 161.354 149.136 166.45C151.599 168.912 154.885 170.279 158.383 170.279C161.88 170.279 165.167 168.922 167.629 166.45C172.724 161.354 172.724 153.053 167.629 147.957C165.157 145.495 161.88 144.128 158.383 144.128C154.885 144.128 151.599 145.485 149.136 147.957ZM166.574 165.395C164.322 167.646 161.358 168.781 158.393 168.781C155.428 168.781 152.463 167.656 150.212 165.395C145.699 160.882 145.699 153.545 150.212 149.033C152.473 146.781 155.428 145.646 158.393 145.646C161.358 145.646 164.322 146.771 166.574 149.033C171.086 153.545 171.086 160.882 166.574 165.395Z" fill="#149CB2"/>
<path d="M93.3675 92.1784C99.8398 85.7061 99.8398 75.1734 93.3675 68.7111C90.1313 65.4749 85.88 63.8568 81.6288 63.8568C77.3775 63.8568 73.1263 65.4749 69.8901 68.7111C66.7544 71.8468 65.0258 76.0176 65.0258 80.4498C65.0258 84.8819 66.7544 89.0528 69.8901 92.1885C73.0258 95.3242 77.1966 97.0528 81.6288 97.0528C86.0609 97.0528 90.2318 95.3242 93.3675 92.1885V92.1784ZM66.5434 80.4498C66.5434 76.4196 68.1112 72.6307 70.9655 69.7764C73.8097 66.9322 77.5986 65.3643 81.6388 65.3643C85.669 65.3643 89.4579 66.9322 92.3122 69.7764C95.1564 72.6206 96.7243 76.4096 96.7243 80.4498C96.7243 84.49 95.1564 88.2789 92.3122 91.1231C89.4579 93.9774 85.669 95.5453 81.6388 95.5453C77.6087 95.5453 73.8198 93.9774 70.9655 91.1231C68.1112 88.2689 66.5434 84.4799 66.5434 80.4498Z" fill="#149CB2"/>
<path d="M90.8751 89.696C95.9705 84.6005 95.9705 76.299 90.8751 71.2035C88.4128 68.7412 85.1263 67.3744 81.6288 67.3744C78.1313 67.3744 74.8449 68.7312 72.3826 71.2035C69.9102 73.6759 68.5534 76.9623 68.5534 80.4498C68.5534 83.9372 69.9102 87.2236 72.3826 89.696C74.8549 92.1684 78.1414 93.5251 81.6288 93.5251C85.1163 93.5251 88.4027 92.1684 90.8751 89.696ZM73.4479 88.6307C71.267 86.4498 70.061 83.5352 70.061 80.4498C70.061 77.3643 71.267 74.4498 73.4479 72.2689C75.7092 70.0176 78.664 68.8819 81.6288 68.8819C84.5936 68.8819 87.5585 70.0076 89.8097 72.2689C94.3223 76.7814 94.3223 84.1181 89.8097 88.6307C87.6188 90.8116 84.7142 92.0176 81.6288 92.0176C78.5434 92.0176 75.6288 90.8116 73.4479 88.6307Z" fill="#149CB2"/>
</svg>
