<svg width="240" height="240" viewBox="0 0 240 240" fill="none" xmlns="http://www.w3.org/2000/svg">
<path d="M120 240C186.274 240 240 186.274 240 120C240 53.7258 186.274 0 120 0C53.7259 0 0 53.7258 0 120C0 186.274 53.7259 240 120 240Z" fill="#20273F"/>
<path d="M61.6913 51.4125H49.3696C44.3244 51.4125 40.2139 55.513 40.2139 60.5683V174.216C40.2139 179.262 44.3144 183.372 49.3696 183.372H197.279C198.666 183.372 199.792 182.247 199.792 180.86V67.2115C199.792 65.8245 198.666 64.6989 197.279 64.6989H64.2139V53.9351C64.2139 52.5482 63.0883 51.4225 61.7013 51.4225L61.6913 51.4125ZM45.239 60.5683C45.239 58.2969 47.0882 56.4376 49.3696 56.4376H59.1787V165.061H49.3696C47.8822 165.061 46.4852 165.412 45.239 166.046V60.5582V60.5683ZM194.757 69.714V178.337H49.3596C47.0882 178.337 45.2289 176.488 45.2289 174.206C45.2289 171.925 47.0782 170.076 49.3596 170.076H61.6812C63.0681 170.076 64.1938 168.95 64.1938 167.563V69.7039H194.747L194.757 69.714Z" fill="#291B4A"/>
<path d="M88.9676 148.578L127.721 170.95C128.495 171.402 129.46 171.402 130.234 170.95L168.988 148.578C169.762 148.126 170.244 147.302 170.244 146.397V101.654C170.244 100.779 169.752 99.9049 168.988 99.4728L130.234 77.1009C129.46 76.6487 128.495 76.6487 127.721 77.1009L88.9676 99.4728C88.2742 99.8647 87.7918 100.619 87.7214 101.412C87.631 101.593 87.7616 146.186 87.7114 146.397C87.7114 147.292 88.1938 148.126 88.9676 148.568V148.578ZM165.219 144.95L131.49 164.418V125.473L165.219 106.005V144.95ZM128.978 82.1863L162.706 101.654L128.978 121.121L95.2491 101.654L128.978 82.1863ZM92.7365 106.005L126.465 125.473V164.418L92.7365 144.95V106.005Z" fill="#291B4A"/>
<path d="M183.159 82.8094C184.546 82.8094 185.671 81.6838 185.671 80.2969C185.671 78.9099 184.546 77.7843 183.159 77.7843H171.108C169.721 77.7843 168.596 78.9099 168.596 80.2969C168.596 81.6838 169.721 82.8094 171.108 82.8094H183.159Z" fill="#291B4A"/>
<path d="M183.159 91.3522C184.546 91.3522 185.671 90.2265 185.671 88.8396C185.671 87.4527 184.546 86.327 183.159 86.327H171.108C169.721 86.327 168.596 87.4527 168.596 88.8396C168.596 90.2265 169.721 91.3522 171.108 91.3522H183.159Z" fill="#291B4A"/>
<path d="M87.8521 162.739C89.2391 162.739 90.3647 161.613 90.3647 160.227C90.3647 158.84 89.2391 157.714 87.8521 157.714H75.8019C74.4149 157.714 73.2893 158.84 73.2893 160.227C73.2893 161.613 74.4149 162.739 75.8019 162.739H87.8521Z" fill="#291B4A"/>
<path d="M87.8521 171.292C89.2391 171.292 90.3647 170.166 90.3647 168.779C90.3647 167.392 89.2391 166.267 87.8521 166.267H75.8019C74.4149 166.267 73.2893 167.392 73.2893 168.779C73.2893 170.166 74.4149 171.292 75.8019 171.292H87.8521Z" fill="#291B4A"/>
<path d="M49.3696 174.317C47.0983 174.317 45.239 172.468 45.239 170.186C45.239 168.799 44.1134 167.674 42.7264 167.674C41.3395 167.674 40.2139 168.799 40.2139 170.186C40.2139 175.232 44.3144 179.342 49.3696 179.342H197.279C198.666 179.342 199.792 178.216 199.792 176.83V63.1813C199.792 61.7943 198.666 60.6687 197.279 60.6687H61.7013C60.3144 60.6687 59.1888 61.7943 59.1888 63.1813C59.1888 64.5682 60.3144 65.6938 61.7013 65.6938H194.767V174.317H49.3696Z" fill="#65C1D6"/>
<path d="M45.239 170.196C45.239 167.925 47.0882 166.066 49.3696 166.066H61.6913C63.0782 166.066 64.2038 164.94 64.2038 163.553V49.9049C64.2038 48.518 63.0782 47.3923 61.6913 47.3923H49.3696C44.3244 47.3923 40.2139 51.4928 40.2139 56.5481V170.196C40.2139 171.583 41.3395 172.709 42.7264 172.709C44.1134 172.709 45.239 171.583 45.239 170.196ZM45.239 56.5481C45.239 54.2768 47.0882 52.4175 49.3696 52.4175H59.1787V161.041H49.3696C47.8822 161.041 46.4852 161.392 45.239 162.025V56.5381V56.5481Z" fill="#65C1D6"/>
<path d="M62.6963 65.6939V163.553C62.6963 164.106 62.244 164.558 61.6912 164.558H49.3696C46.2641 164.558 43.7314 167.081 43.7314 170.196C43.7314 173.312 46.254 175.835 49.3696 175.835H194.767C195.601 175.835 196.274 175.161 196.274 174.327V65.7039C196.274 64.8698 195.601 64.1964 194.767 64.1964H64.2139C63.3797 64.1964 62.7063 64.8698 62.7063 65.7039L62.6963 65.6939ZM194.757 174.317H49.3596C47.0882 174.317 45.2289 172.468 45.2289 170.186C45.2289 167.905 47.0782 166.056 49.3596 166.056H61.6812C63.0681 166.056 64.1937 164.93 64.1937 163.543V65.6839H194.747V174.307L194.757 174.317Z" fill="#149CB2"/>
<path d="M44.445 163.312C44.6862 163.463 44.9576 163.533 45.239 163.533C45.4701 163.533 45.7012 163.483 45.9223 163.372C46.9977 162.83 48.1535 162.548 49.3696 162.548H59.1787C60.0129 162.548 60.6862 161.875 60.6862 161.041V52.4174C60.6862 51.5833 60.0129 50.9099 59.1787 50.9099H49.3696C46.2641 50.9099 43.7314 53.4325 43.7314 56.5481V162.036C43.7314 162.558 44.0028 163.051 44.455 163.322L44.445 163.312ZM45.239 56.5481C45.239 54.2767 47.0882 52.4174 49.3696 52.4174H59.1787V161.041H49.3696C47.8822 161.041 46.4852 161.392 45.239 162.025V56.5381V56.5481Z" fill="#149CB2"/>
<path d="M61.6913 47.3923H49.3696C44.3244 47.3923 40.2139 51.4928 40.2139 56.5481V170.196C40.2139 175.242 44.3144 179.352 49.3696 179.352H197.279C198.666 179.352 199.792 178.227 199.792 176.84V63.1913C199.792 61.8044 198.666 60.6788 197.279 60.6788H64.2139V49.9149C64.2139 48.528 63.0883 47.4024 61.7013 47.4024L61.6913 47.3923ZM197.269 62.1763C197.822 62.1763 198.274 62.6285 198.274 63.1813V176.83C198.274 177.382 197.822 177.835 197.269 177.835H49.3596C45.1485 177.835 41.7113 174.407 41.7113 170.186V56.5381C41.7113 52.327 45.1385 48.8898 49.3596 48.8898H61.6812C62.234 48.8898 62.6862 49.3421 62.6862 49.8948V60.6587C62.6862 61.4928 63.3596 62.1662 64.1938 62.1662H197.259L197.269 62.1763Z" fill="#149CB2"/>
<path d="M127.721 166.93C128.113 167.151 128.546 167.262 128.978 167.262C129.41 167.262 129.842 167.151 130.234 166.93L168.988 144.558C169.762 144.106 170.244 143.282 170.244 142.377V97.6337C170.244 96.7392 169.762 95.905 168.988 95.4528L130.234 73.0809C129.46 72.6286 128.495 72.6286 127.721 73.0809L88.9677 95.4528C88.1938 95.905 87.7114 96.7291 87.7114 97.6337V142.377C87.7114 143.272 88.1938 144.106 88.9677 144.558L127.721 166.93ZM92.7366 99.0809L128.978 78.1563L165.219 99.0809V140.93L128.978 161.855L92.7366 140.93V99.0809Z" fill="#F9B087"/>
<path d="M127.732 122.196C128.113 122.418 128.546 122.528 128.978 122.528C129.41 122.528 129.832 122.418 130.224 122.196L168.214 100.588C169.42 99.905 169.842 98.3673 169.159 97.1613C168.475 95.9553 166.938 95.5332 165.732 96.2166L128.988 117.121L92.2441 96.2166C91.0381 95.5332 89.5004 95.9553 88.8169 97.1613C88.1335 98.3673 88.5556 99.905 89.7616 100.588L127.752 122.196H127.732Z" fill="#F9B087"/>
<path d="M131.49 163.744V120.005C131.49 118.619 130.365 117.493 128.978 117.493C127.591 117.493 126.465 118.619 126.465 120.005V163.744C126.465 165.131 127.591 166.257 128.978 166.257C130.365 166.257 131.49 165.131 131.49 163.744Z" fill="#F9B087"/>
<path d="M91.9828 142.237L125.711 161.704C125.943 161.835 126.204 161.905 126.465 161.905C126.726 161.905 126.988 161.835 127.219 161.704C127.681 161.433 127.973 160.94 127.973 160.397V121.463C127.973 120.92 127.681 120.418 127.209 120.156L93.4803 100.97C93.2491 100.84 92.9878 100.769 92.7365 100.769C92.4853 100.769 92.2139 100.84 91.9828 100.97C91.5205 101.242 91.229 101.734 91.229 102.277V140.92C91.229 141.463 91.5205 141.955 91.9828 142.227V142.237ZM92.7365 102.287L126.465 121.473V160.407L92.7365 140.94V102.297V102.287Z" fill="#FF8639"/>
<path d="M130.746 120.156C130.274 120.428 129.983 120.92 129.983 121.463V160.397C129.983 160.94 130.274 161.433 130.736 161.704C130.968 161.835 131.229 161.905 131.49 161.905C131.752 161.905 132.013 161.835 132.244 161.704L165.973 142.237C166.435 141.965 166.726 141.473 166.726 140.93V102.287C166.726 101.754 166.445 101.252 165.973 100.98C165.742 100.84 165.48 100.779 165.219 100.779C164.958 100.779 164.706 100.85 164.475 100.98L130.746 120.166V120.156ZM165.219 140.93L131.49 160.397V121.463L165.219 102.277V140.92V140.93Z" fill="#FF8639"/>
<path d="M127.721 166.93C128.113 167.151 128.546 167.262 128.978 167.262C129.41 167.262 129.842 167.151 130.234 166.93L168.988 144.558C169.762 144.106 170.244 143.282 170.244 142.377V97.6336C170.244 96.7391 169.762 95.9049 168.988 95.4527L130.234 73.0808C129.842 72.8597 129.41 72.7491 128.978 72.7491C128.546 72.7491 128.113 72.8597 127.721 73.0808L88.9677 95.4527C88.1938 95.9049 87.7114 96.729 87.7114 97.6336V142.377C87.7114 143.272 88.1938 144.106 88.9677 144.558L127.721 166.93ZM89.219 97.6336C89.219 97.2718 89.4099 96.9401 89.7215 96.7592L128.475 74.3873C128.626 74.2969 128.797 74.2567 128.978 74.2567C129.159 74.2567 129.329 74.3069 129.48 74.3873L168.234 96.7592C168.546 96.9401 168.737 97.2718 168.737 97.6336V142.377C168.737 142.739 168.546 143.071 168.234 143.252L129.48 165.624C129.329 165.714 129.149 165.754 128.978 165.754C128.807 165.754 128.626 165.704 128.475 165.624L89.7215 143.252C89.4099 143.071 89.219 142.739 89.219 142.377V97.6336Z" fill="#FF8639"/>
<path d="M94.2441 99.0909L128.224 118.428C128.455 118.558 128.716 118.629 128.968 118.629C129.219 118.629 129.48 118.558 129.711 118.428L163.701 99.0909C164.174 98.8195 164.465 98.327 164.465 97.7843C164.465 97.2416 164.184 96.7391 163.711 96.4778L129.721 76.8597C129.49 76.729 129.229 76.6587 128.968 76.6587C128.706 76.6587 128.445 76.729 128.214 76.8597L94.234 96.4778C93.7616 96.7491 93.4802 97.2517 93.4802 97.7843C93.4802 98.327 93.7717 98.8195 94.2441 99.0909ZM128.978 78.1662L162.968 97.7843L128.978 117.121L94.9978 97.7843L128.978 78.1662Z" fill="#FF8639"/>
<path d="M183.159 78.7893C184.546 78.7893 185.671 77.6637 185.671 76.2767C185.671 74.8898 184.546 73.7642 183.159 73.7642H171.108C169.721 73.7642 168.596 74.8898 168.596 76.2767C168.596 77.6637 169.721 78.7893 171.108 78.7893H183.159Z" fill="#D3D3D3"/>
<path d="M183.159 87.332C184.546 87.332 185.671 86.2064 185.671 84.8194C185.671 83.4325 184.546 82.3069 183.159 82.3069H171.108C169.721 82.3069 168.596 83.4325 168.596 84.8194C168.596 86.2064 169.721 87.332 171.108 87.332H183.159Z" fill="#D3D3D3"/>
<path d="M87.8521 158.719C89.2391 158.719 90.3647 157.593 90.3647 156.206C90.3647 154.819 89.2391 153.694 87.8521 153.694H75.8019C74.4149 153.694 73.2893 154.819 73.2893 156.206C73.2893 157.593 74.4149 158.719 75.8019 158.719H87.8521Z" fill="#D3D3D3"/>
<path d="M87.8521 167.262C89.2391 167.262 90.3647 166.136 90.3647 164.749C90.3647 163.362 89.2391 162.237 87.8521 162.237H75.8019C74.4149 162.237 73.2893 163.362 73.2893 164.749C73.2893 166.136 74.4149 167.262 75.8019 167.262H87.8521Z" fill="#D3D3D3"/>
<path d="M183.159 78.7893C184.546 78.7893 185.671 77.6637 185.671 76.2767C185.671 74.8898 184.546 73.7642 183.159 73.7642H171.108C169.721 73.7642 168.596 74.8898 168.596 76.2767C168.596 77.6637 169.721 78.7893 171.108 78.7893H183.159ZM170.103 76.2767C170.103 75.724 170.556 75.2717 171.108 75.2717H183.159C183.711 75.2717 184.164 75.724 184.164 76.2767C184.164 76.8295 183.711 77.2817 183.159 77.2817H171.108C170.556 77.2817 170.103 76.8295 170.103 76.2767Z" fill="#EBE7F2"/>
<path d="M183.159 87.332C184.546 87.332 185.671 86.2064 185.671 84.8194C185.671 83.4325 184.546 82.3069 183.159 82.3069H171.108C169.721 82.3069 168.596 83.4325 168.596 84.8194C168.596 86.2064 169.721 87.332 171.108 87.332H183.159ZM170.103 84.8194C170.103 84.2667 170.556 83.8144 171.108 83.8144H183.159C183.711 83.8144 184.164 84.2667 184.164 84.8194C184.164 85.3722 183.711 85.8245 183.159 85.8245H171.108C170.556 85.8245 170.103 85.3722 170.103 84.8194Z" fill="#EBE7F2"/>
<path d="M87.8521 158.719C89.2391 158.719 90.3647 157.593 90.3647 156.206C90.3647 154.819 89.2391 153.694 87.8521 153.694H75.8019C74.4149 153.694 73.2893 154.819 73.2893 156.206C73.2893 157.593 74.4149 158.719 75.8019 158.719H87.8521ZM74.7968 156.206C74.7968 155.654 75.2491 155.201 75.8019 155.201H87.8521C88.4049 155.201 88.8571 155.654 88.8571 156.206C88.8571 156.759 88.4049 157.211 87.8521 157.211H75.8019C75.2491 157.211 74.7968 156.759 74.7968 156.206Z" fill="#EBE7F2"/>
<path d="M87.8521 167.262C89.2391 167.262 90.3647 166.136 90.3647 164.749C90.3647 163.362 89.2391 162.237 87.8521 162.237H75.8019C74.4149 162.237 73.2893 163.362 73.2893 164.749C73.2893 166.136 74.4149 167.262 75.8019 167.262H87.8521ZM74.7968 164.749C74.7968 164.196 75.2491 163.744 75.8019 163.744H87.8521C88.4049 163.744 88.8571 164.196 88.8571 164.749C88.8571 165.302 88.4049 165.754 87.8521 165.754H75.8019C75.2491 165.754 74.7968 165.302 74.7968 164.749Z" fill="#EBE7F2"/>
</svg>
