<svg width="200" height="200" viewBox="0 0 200 200" fill="none" xmlns="http://www.w3.org/2000/svg">
<g clip-path="url(#clip0_11_118)">
<path d="M162.5 200H37.5C16.7875 200 0 183.212 0 162.5V37.5C0 16.7875 16.7875 0 37.5 0H162.5C183.212 0 200 16.7875 200 37.5V162.5C200 183.212 183.212 200 162.5 200Z" fill="#E2EFFF"/>
<path d="M136.206 112.25C133.787 113.75 131.5 114.919 129.456 115.75C128.037 116.375 126.5 116.669 125 116.669C123.5 116.669 121.956 116.375 120.544 115.75C116.919 114.25 112.5 111.75 108.212 108.331H68.4187L74.5875 94.1625C75.2563 92.6625 76.7563 91.6626 78.3813 91.6626H94.8C93.6313 89.0813 92.7188 86.2875 92.2188 83.3313H78.375C73.4188 83.3313 68.9188 86.2875 66.9188 90.8313L58.6688 109.788C58.625 109.869 58.6688 109.956 58.625 110.081C53.5438 112.669 50 117.875 50 123.956V139.581C50 145.331 54.6687 150 60.4187 150C66.1688 150 70.8375 145.331 70.8375 139.581V137.5H120.838V139.581C120.831 145.331 125.5 150 131.25 150C137 150 141.669 145.331 141.669 139.581V123.956C141.669 119.25 139.544 115.044 136.206 112.25ZM75 129.169H66.6688C64.375 129.169 62.5 127.294 62.5 125C62.5 122.706 64.375 120.831 66.6688 120.831H75C77.2938 120.831 79.1688 122.706 79.1688 125C79.1688 127.294 77.2938 129.169 75 129.169ZM125 129.169H116.669C114.375 129.169 112.5 127.294 112.5 125C112.5 122.706 114.375 120.831 116.669 120.831H125C127.294 120.831 129.169 122.706 129.169 125C129.169 127.294 127.294 129.169 125 129.169Z" fill="#001647"/>
<path d="M147.881 57.6062L126.006 50.1687C125.356 49.9438 124.65 49.9438 123.994 50.1687L102.119 57.6062C100.85 58.0375 100 59.225 100 60.5687V77.3125C100 97.75 122.806 107.675 123.781 108.094C124.569 108.425 125.437 108.425 126.225 108.094C127.194 107.675 150 97.7438 150 77.3062V60.5687C150 59.225 149.15 58.0375 147.881 57.6062ZM138.694 73.4062L127.237 87.9875C125.775 89.85 123.044 90.1187 121.25 88.575L113.956 82.325C112.206 80.825 112 78.2 113.506 76.45C115.006 74.7062 117.638 74.5 119.375 76L123.369 79.4187L132.144 68.2562C133.562 66.45 136.181 66.1312 137.994 67.5562C139.8 68.9812 140.119 71.6 138.694 73.4062Z" fill="#629EF1"/>
</g>
<defs>
<clipPath id="clip0_11_118">
<rect width="200" height="200" fill="white"/>
</clipPath>
</defs>
</svg>
