<svg width="240" height="240" viewBox="0 0 240 240" fill="none" xmlns="http://www.w3.org/2000/svg">
<path d="M120 240C186.274 240 240 186.274 240 120C240 53.7258 186.274 0 120 0C53.7258 0 0 53.7258 0 120C0 186.274 53.7258 240 120 240Z" fill="#20273F"/>
<path d="M158.224 146.754C155.872 149.97 153.189 151.698 150.847 151.095C146.556 149.99 145.048 141.447 147.49 132.02C149.922 122.593 155.38 115.849 159.671 116.965C162.023 117.578 163.541 120.412 164.023 124.412" stroke="#291B4A" stroke-width="3.5" stroke-miterlimit="10"/>
<path d="M209.4 160.613C206.395 159.839 205.259 154.151 206.867 147.91C208.475 141.668 212.224 137.246 215.239 138.02" stroke="#291B4A" stroke-width="3.5" stroke-miterlimit="10"/>
<path d="M93.9828 127.578L32.0029 110.905L31.8723 110.864C28.8672 110.09 27.7316 104.402 29.3396 98.1608C30.9476 91.9196 34.6964 87.4975 37.7115 88.2714L37.8321 88.3015L100.747 105.166" stroke="#291B4A" stroke-width="3.5" stroke-miterlimit="10"/>
<path d="M146.365 143.719L209.179 160.553L209.4 160.613C212.405 161.387 216.154 156.965 217.772 150.724C219.39 144.482 218.254 138.804 215.239 138.02L214.907 137.93L153.129 121.317" stroke="#291B4A" stroke-width="3.5" stroke-miterlimit="10"/>
<path d="M120.495 97.9096L113.892 96.2011C107.822 94.6333 100.083 104.261 96.616 117.699C93.1487 131.136 95.2391 143.317 101.309 144.885L107.913 146.593" stroke="#291B4A" stroke-width="3.5" stroke-miterlimit="10"/>
<path d="M117.953 140.503C115.4 145.457 110.716 147.317 107.912 146.593C101.842 145.025 99.7416 132.854 103.219 119.407C106.696 105.96 114.435 96.3318 120.495 97.9097C123.149 98.5931 126.274 102.05 126.274 107.246" stroke="#291B4A" stroke-width="3.5" stroke-miterlimit="10"/>
<path d="M150.596 151.015L112.767 139.447L112.314 139.307C108.455 138.312 107.229 130.141 109.571 121.055C111.912 111.97 116.948 105.427 120.807 106.422L121.209 106.533L159.993 117.055" stroke="#291B4A" stroke-width="3.5" stroke-miterlimit="10"/>
<path d="M150.847 151.095C146.556 149.99 145.048 141.447 147.49 132.02C149.922 122.593 155.38 115.849 159.671 116.965" stroke="#291B4A" stroke-width="3.5" stroke-miterlimit="10"/>
<path d="M138.221 116.27C139.009 113.783 137.902 111.214 135.749 110.532C133.595 109.849 131.21 111.312 130.422 113.799C129.634 116.286 130.742 118.855 132.895 119.538C135.049 120.22 137.433 118.757 138.221 116.27Z" stroke="#65C1D6" stroke-width="1.7" stroke-miterlimit="10"/>
<path d="M126.215 112.985C127.003 110.498 125.896 107.929 123.742 107.246C121.589 106.564 119.204 108.027 118.416 110.514C117.628 113.001 118.735 115.57 120.889 116.252C123.043 116.935 125.427 115.472 126.215 112.985Z" stroke="#65C1D6" stroke-width="1.7" stroke-miterlimit="10"/>
<path d="M39.4602 85.4473C39.4602 85.4473 28.9276 96.0905 37.41 109.055" stroke="#D3D3D3" stroke-width="2" stroke-miterlimit="10"/>
<path d="M44.616 86.6633C44.616 86.6633 34.2743 97.0251 42.5657 110.271" stroke="#D3D3D3" stroke-width="2" stroke-miterlimit="10"/>
<path d="M49.7818 87.8895C49.7818 87.8895 39.6311 97.9699 47.7316 111.498" stroke="#D3D3D3" stroke-width="2" stroke-miterlimit="10"/>
<path d="M54.9376 89.1056C54.9376 89.1056 44.9778 98.9046 52.8873 112.714" stroke="#D3D3D3" stroke-width="2" stroke-miterlimit="10"/>
<path d="M60.0934 90.3317C60.0934 90.3317 50.3246 99.8493 58.0432 113.94" stroke="#D3D3D3" stroke-width="2" stroke-miterlimit="10"/>
<path d="M65.2492 91.5477C65.2492 91.5477 55.6814 100.784 63.1989 115.156" stroke="#D3D3D3" stroke-width="2" stroke-miterlimit="10"/>
<path d="M70.405 92.7739C70.405 92.7739 61.0281 101.729 68.3547 116.382" stroke="#D3D3D3" stroke-width="2" stroke-miterlimit="10"/>
<path d="M75.5707 93.99C75.5707 93.99 66.3848 102.663 73.5205 117.598" stroke="#D3D3D3" stroke-width="2" stroke-miterlimit="10"/>
<path d="M80.7266 95.2161C80.7266 95.2161 71.7316 103.608 78.6763 118.824" stroke="#D3D3D3" stroke-width="2" stroke-miterlimit="10"/>
<path d="M85.8823 96.4323C85.8823 96.4323 77.0884 104.533 83.8321 120.04" stroke="#D3D3D3" stroke-width="2" stroke-miterlimit="10"/>
<path d="M91.0381 97.6583C91.0381 97.6583 82.4351 105.477 88.9879 121.266" stroke="#D3D3D3" stroke-width="2" stroke-miterlimit="10"/>
<path d="M96.1939 98.8744C96.1939 98.8744 87.7818 106.412 94.1436 122.482" stroke="#D3D3D3" stroke-width="2" stroke-miterlimit="10"/>
<path d="M153.42 118.241C153.42 118.241 144.988 125.759 151.319 141.849" stroke="#D3D3D3" stroke-width="2" stroke-miterlimit="10"/>
<path d="M158.274 119.447C158.274 119.447 149.842 126.965 156.174 143.055" stroke="#D3D3D3" stroke-width="2" stroke-miterlimit="10"/>
<path d="M163.128 120.653C163.128 120.653 154.696 128.171 161.028 144.261" stroke="#D3D3D3" stroke-width="2" stroke-miterlimit="10"/>
<path d="M167.993 121.859C167.993 121.859 159.561 129.377 165.892 145.467" stroke="#D3D3D3" stroke-width="2" stroke-miterlimit="10"/>
<path d="M172.847 123.065C172.847 123.065 164.415 130.583 170.747 146.673" stroke="#D3D3D3" stroke-width="2" stroke-miterlimit="10"/>
<path d="M177.701 124.271C177.701 124.271 169.269 131.789 175.601 147.879" stroke="#D3D3D3" stroke-width="2" stroke-miterlimit="10"/>
<path d="M182.556 125.477C182.556 125.477 174.123 132.995 180.455 149.085" stroke="#D3D3D3" stroke-width="2" stroke-miterlimit="10"/>
<path d="M187.41 126.683C187.41 126.683 178.978 134.201 185.309 150.292" stroke="#D3D3D3" stroke-width="2" stroke-miterlimit="10"/>
<path d="M192.264 127.89C192.264 127.89 183.832 135.407 190.164 151.498" stroke="#D3D3D3" stroke-width="2" stroke-miterlimit="10"/>
<path d="M197.129 129.096C197.129 129.096 188.696 136.613 195.028 152.704" stroke="#D3D3D3" stroke-width="2" stroke-miterlimit="10"/>
<path d="M201.983 130.302C201.983 130.302 193.551 137.819 199.882 153.91" stroke="#D3D3D3" stroke-width="2" stroke-miterlimit="10"/>
<path d="M206.837 131.508C206.837 131.508 198.405 139.025 204.737 155.116" stroke="#D3D3D3" stroke-width="2" stroke-miterlimit="10"/>
<path d="M158.224 142.734C155.872 145.95 153.189 147.679 150.847 147.076C146.556 145.97 145.048 137.427 147.49 128C149.923 118.573 155.38 111.829 159.671 112.945C162.023 113.558 163.541 116.392 164.023 120.392" stroke="#F9B087" stroke-width="3.5" stroke-miterlimit="10"/>
<path d="M209.4 156.593C206.395 155.819 205.259 150.131 206.867 143.889C208.475 137.648 212.224 133.226 215.239 134" stroke="#EBE7F2" stroke-width="3.5" stroke-miterlimit="10"/>
<path d="M93.9828 123.558L32.0029 106.885L31.8723 106.844C28.8672 106.07 27.7316 100.382 29.3396 94.1408C30.9476 87.8996 34.6964 83.4775 37.7115 84.2513L37.8321 84.2815L100.747 101.146" stroke="#EBE7F2" stroke-width="3.5" stroke-miterlimit="10"/>
<path d="M146.365 139.699L209.179 156.533L209.4 156.593C212.405 157.367 216.154 152.945 217.772 146.704C219.39 140.462 218.254 134.784 215.239 134L214.907 133.91L153.129 117.297" stroke="#EBE7F2" stroke-width="3.5" stroke-miterlimit="10"/>
<path d="M210.124 157.859C209.782 157.859 209.44 157.819 209.108 157.729L146.596 140.975L147.209 138.694L205.752 154.382L205.48 153.447C205.4 153.146 205.32 152.834 205.249 152.513C204.737 149.94 204.907 146.774 205.732 143.588C206.556 140.402 207.943 137.548 209.631 135.548C209.872 135.266 210.113 135.005 210.355 134.764L211.038 134.091L153.35 118.573L153.963 116.292L215.541 132.854C217.45 133.347 218.817 135.196 219.39 138.071C219.902 140.643 219.732 143.809 218.907 146.995C218.083 150.181 216.696 153.035 215.008 155.035C213.45 156.885 211.752 157.859 210.113 157.859H210.124ZM214.536 135.096C213.631 135.096 212.495 135.819 211.43 137.076C209.983 138.784 208.737 141.377 208.013 144.181C207.289 146.985 207.119 149.859 207.561 152.05C207.943 153.95 208.716 155.186 209.691 155.437C209.832 155.478 209.963 155.488 210.103 155.488C211.008 155.488 212.134 154.764 213.209 153.498C214.656 151.789 215.902 149.196 216.626 146.392C217.35 143.588 217.521 140.714 217.078 138.523C216.696 136.623 215.923 135.387 214.938 135.126C214.807 135.096 214.676 135.076 214.526 135.076L214.536 135.096Z" fill="#EBE7F2"/>
<path d="M154.355 116.985L215.41 133.407C217.098 133.839 218.314 135.538 218.847 138.191C219.34 140.683 219.179 143.759 218.375 146.864C217.571 149.97 216.224 152.744 214.586 154.683C213.129 156.402 211.591 157.307 210.113 157.307C209.822 157.307 209.531 157.266 209.249 157.196L209.018 157.136L147.269 140.583L147.591 139.377L204.656 154.673L206.536 155.176L206.003 153.297C205.912 152.965 205.842 152.673 205.782 152.402C205.289 149.91 205.45 146.834 206.254 143.729C207.058 140.623 208.405 137.849 210.043 135.91C210.264 135.648 210.495 135.397 210.737 135.166L212.113 133.809L210.254 133.307L154.033 118.181L154.355 116.975M210.113 156.06C211.571 156.06 212.948 154.694 213.641 153.879C215.139 152.111 216.425 149.437 217.169 146.553C217.912 143.668 218.083 140.704 217.631 138.432C217.209 136.312 216.284 134.925 215.098 134.613C214.918 134.563 214.737 134.543 214.546 134.543C213.078 134.543 211.711 135.91 211.018 136.724C209.521 138.493 208.234 141.166 207.49 144.05C206.747 146.935 206.576 149.9 207.028 152.171C207.45 154.291 208.375 155.678 209.581 155.99C209.752 156.03 209.933 156.06 210.113 156.06ZM153.581 115.628L152.676 118.975L209.963 134.382C209.711 134.633 209.45 134.905 209.209 135.196C207.46 137.256 206.033 140.191 205.189 143.457C204.345 146.724 204.174 149.98 204.696 152.623C204.767 152.965 204.847 153.286 204.938 153.598L146.807 138.02L145.912 141.367L208.727 158.201L208.958 158.261C209.34 158.362 209.722 158.412 210.103 158.412C211.892 158.412 213.742 157.367 215.42 155.397C217.169 153.337 218.596 150.402 219.43 147.136C220.274 143.869 220.445 140.613 219.923 137.97C219.309 134.884 217.792 132.874 215.681 132.332L153.561 115.628H153.581ZM210.113 154.955C210.023 154.955 209.933 154.945 209.852 154.925H209.832C209.088 154.724 208.425 153.588 208.103 151.96C207.681 149.839 207.842 147.065 208.546 144.332C209.249 141.598 210.455 139.096 211.852 137.447C212.807 136.322 213.802 135.658 214.536 135.658C214.626 135.658 214.716 135.668 214.807 135.688C215.551 135.879 216.214 137.015 216.536 138.653C216.958 140.774 216.797 143.548 216.093 146.281C215.39 149.015 214.184 151.518 212.787 153.166C211.832 154.302 210.827 154.955 210.103 154.955H210.113Z" fill="#D3D3D3"/>
<path d="M31.5607 107.99C29.6511 107.498 28.2843 105.648 27.7114 102.774C27.1989 100.201 27.3697 97.0352 28.1938 93.8493C29.018 90.6634 30.4049 87.8091 32.0933 85.8091C33.6511 83.9599 35.3496 82.985 36.9878 82.985C37.3295 82.985 37.6712 83.0252 37.9928 83.1156L100.505 99.8694L99.8923 102.151L37.3898 85.397C37.2592 85.3669 37.1285 85.3468 36.9878 85.3468C36.0833 85.3468 34.9577 86.0704 33.8923 87.3267C32.4451 89.0352 31.1989 91.6282 30.4753 94.4322C29.7516 97.2362 29.5808 100.111 30.023 102.302C30.4049 104.201 31.1788 105.437 32.1637 105.699L93.7516 122.261L93.1386 124.543L31.5607 107.98V107.99Z" fill="#EBE7F2"/>
<path d="M36.9979 83.5478C37.2894 83.5478 37.5808 83.5879 37.8622 83.6583L38.0029 83.6985L99.8522 100.271L99.5306 101.477L37.5507 84.8643C37.3798 84.8241 37.1989 84.794 37.018 84.794C35.5607 84.794 34.1838 86.1608 33.4904 86.9749C31.9929 88.7437 30.7064 91.4171 29.9627 94.3015C29.219 97.1859 29.0481 100.151 29.5004 102.422C29.9225 104.543 30.8471 105.93 32.0331 106.241L32.1838 106.281L93.0984 122.663L92.7768 123.869L31.7215 107.447C30.0331 107.015 28.8069 105.317 28.2843 102.663C27.7919 100.171 27.9527 97.0955 28.7567 93.99C29.5607 90.8844 30.9074 88.1106 32.5456 86.1709C34.0029 84.4523 35.5406 83.5478 37.018 83.5478M36.9979 82.4422C35.209 82.4422 33.3597 83.4774 31.6813 85.4573C29.9326 87.5176 28.5054 90.4523 27.6713 93.7186C26.827 96.9849 26.6562 100.241 27.1788 102.884C27.7919 105.97 29.3095 107.98 31.4301 108.523L93.5406 125.226L94.4451 121.879L32.4652 105.206L32.3145 105.166C31.5708 104.975 30.9074 103.839 30.5858 102.201C30.1637 100.08 30.3245 97.3065 31.028 94.5729C31.7316 91.8392 32.9376 89.3367 34.3346 87.6884C35.2894 86.5528 36.2843 85.8995 37.018 85.8995C37.1084 85.8995 37.1989 85.9096 37.2793 85.9297L100.314 102.824L101.209 99.4774L38.2944 82.6131L38.1537 82.5729C37.7718 82.4724 37.3899 82.4221 37.0079 82.4221L36.9979 82.4422Z" fill="#D3D3D3"/>
<path d="M120.495 93.8895L113.892 92.181C107.822 90.6131 100.083 100.241 96.616 113.678C93.1487 127.116 95.2391 139.297 101.309 140.864L107.913 142.573" stroke="#F9B087" stroke-width="3.5" stroke-miterlimit="10"/>
<path d="M117.953 136.482C115.4 141.437 110.716 143.297 107.912 142.573C101.842 141.005 99.7416 128.834 103.219 115.387C106.696 101.94 114.435 92.3116 120.495 93.8895C123.149 94.5729 126.274 98.0302 126.274 103.226" stroke="#F9B087" stroke-width="3.5" stroke-miterlimit="10"/>
<path d="M150.596 146.995L112.767 135.427L112.314 135.286C108.455 134.291 107.229 126.121 109.571 117.035C111.912 107.95 116.948 101.407 120.807 102.402L121.209 102.513L159.993 113.035" stroke="#F9B087" stroke-width="3.5" stroke-miterlimit="10"/>
<path d="M150.847 147.076C146.556 145.97 145.048 137.427 147.49 128C149.923 118.573 155.38 111.829 159.671 112.945" stroke="#F9B087" stroke-width="3.5" stroke-miterlimit="10"/>
<path d="M112.606 91.3972C113.098 91.3972 113.581 91.4575 114.043 91.5781L120.646 93.2866C123.49 94.0203 126.636 97.5379 126.877 102.603L126.917 103.407L127.691 103.618L159.621 112.282H159.651L159.681 112.292L159.832 112.322C159.832 112.322 159.912 112.342 159.953 112.362L160.033 112.382L160.113 112.412C162.244 113.106 163.41 115.206 164.043 117.287L162.566 116.885C161.872 115.086 160.867 113.95 159.621 113.568L159.47 113.528H159.44L159.41 113.518C159.189 113.468 158.958 113.447 158.727 113.447C154.907 113.447 150.234 119.9 148.103 128.151C146.948 132.623 146.646 137.025 147.269 140.543C147.852 143.839 149.219 146 151.008 146.462C151.249 146.523 151.51 146.563 151.782 146.563C152.857 146.563 154.053 146.03 155.269 145.025L156.737 145.417C155.088 146.995 153.42 147.829 151.832 147.829C151.45 147.829 151.068 147.779 150.716 147.689L150.656 147.669C150.586 147.638 150.515 147.618 150.455 147.588L149.38 147.266V147.287L118.797 137.94L118.023 137.709L117.561 138.372C115.44 141.407 112.144 143.377 109.149 143.377C108.656 143.377 108.184 143.317 107.752 143.206L101.149 141.498C97.9627 140.674 95.6913 137.246 94.7567 131.859C93.8521 126.643 94.2944 120.141 96.0029 113.548C99.2692 100.925 106.405 91.4172 112.606 91.4172M104.043 140.935L102.978 138.774C102.254 137.317 101.721 135.558 101.37 133.558C100.465 128.342 100.907 121.839 102.616 115.246C104.988 106.05 109.51 98.2414 114.395 94.8544L116.385 93.4776L114.043 92.8745L113.742 92.7941C113.38 92.7037 112.998 92.6534 112.606 92.6534C107.058 92.6534 100.304 101.96 97.229 113.849C95.5707 120.272 95.1386 126.583 96.0129 131.628C96.8572 136.503 98.7969 139.578 101.48 140.261L101.721 140.322L104.053 140.925M109.159 142.101C110.897 142.101 113.541 141.186 115.752 138.613L116.857 137.327L115.239 136.834L112.073 135.87C110.154 135.377 108.747 133.277 108.103 129.96C107.41 126.352 107.711 121.709 108.958 116.875C111.239 108.071 115.892 101.669 120.033 101.669C120.345 101.669 120.656 101.709 120.948 101.779L124.113 102.643L125.762 103.096L125.49 101.407C124.877 97.5881 122.425 95.0353 120.325 94.4926C119.963 94.4022 119.581 94.3519 119.189 94.3519C113.641 94.3519 106.887 103.658 103.812 115.548C102.154 121.97 101.721 128.282 102.596 133.327C103.44 138.201 105.38 141.266 108.063 141.96C108.405 142.05 108.767 142.091 109.159 142.091M147.45 145.377L146.706 143.297C146.415 142.503 146.194 141.648 146.033 140.754C145.38 137.065 145.681 132.473 146.887 127.829C148.475 121.679 151.239 116.633 154.475 113.99L156.134 112.633L154.063 112.071L120.646 103.005C120.445 102.955 120.234 102.925 120.013 102.925C116.998 102.925 112.495 108.261 110.184 117.196C109.098 121.387 108.757 125.528 109.219 128.864C109.671 132.141 110.857 134.261 112.425 134.674L112.948 134.834L145.33 144.734L147.44 145.377M112.606 90.2916C105.892 90.2916 98.4049 99.8193 94.9376 113.256C93.1989 119.99 92.7466 126.663 93.6813 132.03C94.6863 137.88 97.2491 141.608 100.877 142.553L107.48 144.261C108.003 144.392 108.566 144.462 109.149 144.462C112.204 144.462 115.933 142.623 118.465 138.985L150.093 148.653V148.633C150.204 148.663 150.304 148.724 150.415 148.754C150.877 148.875 151.35 148.935 151.822 148.935C154.134 148.935 156.536 147.518 158.777 144.824L154.968 143.809C153.822 144.875 152.696 145.468 151.762 145.468C151.591 145.468 151.43 145.447 151.269 145.407C149.933 145.066 148.837 143.176 148.335 140.362C147.742 136.995 148.033 132.764 149.149 128.442C151.289 120.151 155.782 114.573 158.696 114.573C158.847 114.573 158.998 114.593 159.149 114.623L159.299 114.663C160.284 114.965 161.118 116.111 161.681 117.829L165.52 118.864C164.767 114.844 162.998 112.231 160.425 111.387L160.365 111.367C160.274 111.337 160.184 111.307 160.083 111.277C160.023 111.256 159.953 111.246 159.892 111.236L127.963 102.573C127.701 96.975 124.214 93.0856 120.907 92.2313L114.304 90.5228C113.742 90.3821 113.169 90.3017 112.586 90.3017L112.606 90.2916ZM101.983 139.256L101.742 139.196C99.5406 138.623 97.8421 135.799 97.0883 131.437C96.2441 126.543 96.6662 120.392 98.2843 114.121C101.52 101.608 108.144 93.759 112.586 93.759C112.887 93.759 113.169 93.7992 113.45 93.8695L113.752 93.9499C108.777 97.3871 104.073 105.126 101.531 114.975C99.7918 121.709 99.3396 128.372 100.274 133.749C100.646 135.88 101.219 137.729 101.973 139.267L101.983 139.256ZM109.159 140.995C108.857 140.995 108.586 140.965 108.345 140.895C106.144 140.322 104.445 137.498 103.691 133.136C102.847 128.241 103.269 122.091 104.897 115.819C108.134 103.297 114.757 95.4575 119.209 95.4575C119.51 95.4575 119.792 95.4876 120.073 95.568C121.641 95.97 123.872 98.1107 124.425 101.588L121.259 100.724C120.857 100.623 120.455 100.573 120.053 100.573C115.42 100.573 110.365 107.106 107.912 116.603C105.239 126.935 106.958 135.689 111.822 136.945L114.938 137.9C113.098 140.03 110.807 140.995 109.179 140.995H109.159ZM145.661 143.679L113.279 133.779L112.747 133.618C110.576 133.055 108.917 126.493 111.249 117.478C113.46 108.925 117.742 104.04 120.013 104.04C120.134 104.04 120.254 104.05 120.365 104.081L153.772 113.146C150.485 115.839 147.51 121.005 145.822 127.568C144.586 132.362 144.274 137.116 144.948 140.955C145.118 141.95 145.37 142.854 145.661 143.679Z" fill="#FF8639"/>
<path d="M134.646 110.201C135.028 110.201 135.42 110.261 135.782 110.382C136.847 110.724 137.701 111.518 138.194 112.613C138.696 113.749 138.757 115.065 138.355 116.312C137.963 117.548 137.179 118.583 136.134 119.216C135.45 119.638 134.706 119.849 133.963 119.849C133.581 119.849 133.189 119.789 132.817 119.668C131.732 119.327 130.867 118.513 130.375 117.387C129.892 116.271 129.842 114.965 130.234 113.729C130.626 112.493 131.41 111.457 132.455 110.824C133.139 110.412 133.882 110.191 134.626 110.191M133.973 119.538C134.656 119.538 135.35 119.337 135.973 118.955C136.948 118.362 137.681 117.387 138.053 116.221C138.807 113.829 137.752 111.347 135.681 110.694C135.35 110.583 134.998 110.533 134.646 110.533C133.963 110.533 133.269 110.734 132.646 111.116C131.671 111.709 130.938 112.683 130.566 113.849C130.194 115.015 130.244 116.231 130.696 117.276C131.149 118.312 131.943 119.065 132.938 119.377C133.269 119.488 133.621 119.538 133.973 119.538ZM134.646 109.498C133.782 109.498 132.907 109.749 132.114 110.241C130.928 110.965 130.033 112.141 129.591 113.538C129.149 114.935 129.209 116.412 129.752 117.689C130.325 119.005 131.34 119.95 132.626 120.362C133.068 120.503 133.521 120.573 133.983 120.573C134.847 120.573 135.711 120.322 136.516 119.829C137.701 119.106 138.596 117.93 139.038 116.533C139.973 113.598 138.606 110.533 136.003 109.709C135.561 109.568 135.108 109.498 134.646 109.498ZM133.973 118.834C133.691 118.834 133.42 118.794 133.149 118.704C132.355 118.452 131.711 117.839 131.34 116.995C130.958 116.101 130.918 115.055 131.239 114.06C131.561 113.055 132.184 112.221 133.018 111.719C133.541 111.397 134.103 111.236 134.656 111.236C134.938 111.236 135.209 111.276 135.48 111.367C137.179 111.9 138.033 113.99 137.39 116.01C137.068 117.015 136.445 117.849 135.611 118.352C135.088 118.673 134.526 118.834 133.973 118.834Z" fill="#149CB2"/>
<path d="M122.646 106.905C123.028 106.905 123.42 106.965 123.782 107.085C124.847 107.427 125.701 108.221 126.194 109.317C126.696 110.452 126.757 111.769 126.355 113.015C125.963 114.251 125.179 115.286 124.134 115.92C123.45 116.342 122.706 116.553 121.963 116.553C121.581 116.553 121.189 116.493 120.817 116.372C119.732 116.03 118.867 115.216 118.375 114.091C117.892 112.975 117.842 111.668 118.234 110.432C118.626 109.196 119.41 108.161 120.455 107.528C121.139 107.116 121.882 106.895 122.626 106.895M121.973 116.241C122.656 116.241 123.35 116.04 123.973 115.658C124.948 115.065 125.681 114.09 126.053 112.925C126.807 110.533 125.752 108.05 123.681 107.397C123.35 107.286 122.998 107.236 122.646 107.236C121.963 107.236 121.269 107.437 120.646 107.819C119.671 108.412 118.938 109.387 118.566 110.553C118.194 111.719 118.244 112.935 118.696 113.98C119.149 115.015 119.943 115.769 120.938 116.08C121.269 116.191 121.621 116.241 121.973 116.241ZM122.646 106.201C121.782 106.201 120.907 106.452 120.113 106.945C118.928 107.668 118.033 108.844 117.591 110.241C117.149 111.638 117.209 113.116 117.752 114.392C118.325 115.709 119.34 116.653 120.626 117.065C121.068 117.206 121.52 117.276 121.983 117.276C122.847 117.276 123.711 117.025 124.515 116.533C125.701 115.809 126.596 114.633 127.038 113.236C127.973 110.302 126.606 107.236 124.003 106.412C123.561 106.271 123.108 106.201 122.646 106.201ZM121.973 115.538C121.691 115.538 121.42 115.498 121.149 115.407C120.355 115.156 119.711 114.543 119.34 113.699C118.958 112.804 118.917 111.759 119.239 110.764C119.561 109.759 120.184 108.925 121.018 108.422C121.541 108.101 122.103 107.94 122.656 107.94C122.938 107.94 123.209 107.98 123.48 108.07C125.179 108.603 126.033 110.694 125.39 112.714C125.068 113.719 124.445 114.553 123.611 115.055C123.088 115.377 122.526 115.538 121.973 115.538Z" fill="#149CB2"/>
</svg>
