<svg width="200" height="200" viewBox="0 0 200 200" fill="none" xmlns="http://www.w3.org/2000/svg">
<g clip-path="url(#clip0_19_252)">
<path d="M162.5 200H37.5C16.7875 200 0 183.212 0 162.5V37.5C0 16.7875 16.7875 0 37.5 0H162.5C183.212 0 200 16.7875 200 37.5V162.5C200 183.212 183.212 200 162.5 200Z" fill="#E2EFFF"/>
<path d="M87.5 120.831H78.125C75.825 120.831 73.9563 118.963 73.9563 116.663C73.9563 114.363 75.8188 112.5 78.125 112.5H87.5V104.169H83.6125C80.7063 104.169 77.9625 102.619 76.4688 100.125L67.6125 85.3625C66.8625 84.1125 65.4938 83.3375 64.0375 83.3375H54.1687C51.8625 83.3312 50 81.4687 50 79.1687C50 76.8687 51.8625 75 54.1687 75H64.0312C68.3938 75 72.5 77.325 74.7563 81.0687L83.6125 95.8375H87.5C92.0938 95.8375 95.8313 99.575 95.8313 104.169V112.5C95.8313 117.094 92.0938 120.831 87.5 120.831Z" fill="#001647"/>
<path d="M68.75 129.169C63.0063 129.169 58.3313 124.494 58.3313 118.75C58.3313 113.006 63 108.331 68.75 108.331C74.5 108.331 79.1688 113.006 79.1688 118.75C79.1688 124.494 74.4938 129.169 68.75 129.169Z" fill="#001647"/>
<path d="M59.375 120.831H54.1687C51.8625 120.831 50 118.969 50 116.669C50 114.369 51.8625 112.5 54.1687 112.5H59.375C61.675 112.5 63.5437 114.369 63.5437 116.669C63.5437 118.969 61.675 120.831 59.375 120.831Z" fill="#001647"/>
<path d="M62.5 100H54.1687C51.8625 100 50 98.1313 50 95.8313C50 93.5313 51.8625 91.6626 54.1687 91.6626H62.5C64.8 91.6626 66.6687 93.5313 66.6687 95.8313C66.6687 98.1313 64.8 100 62.5 100Z" fill="#001647"/>
<path d="M112.5 120.831H121.875C124.175 120.831 126.044 118.963 126.044 116.663C126.044 114.363 124.181 112.5 121.875 112.5H112.5V104.169H116.387C119.294 104.169 122.037 102.619 123.531 100.125L132.387 85.3625C133.137 84.1125 134.506 83.3375 135.962 83.3375H145.825C148.125 83.3375 149.994 81.4687 149.994 79.1687C149.994 76.8687 148.137 75 145.831 75H135.969C131.606 75 127.5 77.325 125.244 81.0687L116.387 95.8375H112.5C107.906 95.8375 104.169 99.575 104.169 104.169V112.5C104.169 117.094 107.906 120.831 112.5 120.831Z" fill="#001647"/>
<path d="M120.831 118.75C120.831 113.006 125.5 108.331 131.25 108.331C137 108.331 141.669 113.006 141.669 118.75C141.669 124.494 137 129.169 131.25 129.169C125.5 129.169 120.831 124.494 120.831 118.75Z" fill="#001647"/>
<path d="M140.625 120.831H145.831C148.131 120.831 150 118.963 150 116.663C150 114.363 148.138 112.5 145.831 112.5H140.625C138.325 112.5 136.456 114.369 136.456 116.669C136.456 118.969 138.325 120.831 140.625 120.831Z" fill="#001647"/>
<path d="M137.5 100H145.831C148.138 100 150 98.1313 150 95.8313C150 93.5313 148.138 91.6626 145.831 91.6626H137.5C135.2 91.6626 133.331 93.5313 133.331 95.8313C133.331 98.1313 135.2 100 137.5 100Z" fill="#001647"/>
<path d="M100 83.3313C98.275 83.3313 96.875 81.9313 96.875 80.2063V73.9563C96.875 72.2313 98.275 70.8313 100 70.8313C101.725 70.8313 103.125 72.2313 103.125 73.9563V80.2063C103.125 81.9313 101.725 83.3313 100 83.3313Z" fill="#629EF1"/>
<path d="M111.456 87.4999C110.656 87.4999 109.856 87.1937 109.244 86.5874C108.025 85.3687 108.025 83.3874 109.244 82.1687L111.325 80.0874C112.544 78.8687 114.525 78.8687 115.744 80.0874C116.963 81.3062 116.963 83.2874 115.744 84.5062L113.663 86.5874C113.056 87.1937 112.263 87.4999 111.456 87.4999Z" fill="#629EF1"/>
<path d="M88.5438 87.5001C87.7438 87.5001 86.9438 87.1938 86.3313 86.5876L84.25 84.5001C83.0312 83.2813 83.0312 81.3 84.25 80.0813C85.4688 78.8625 87.45 78.8625 88.6688 80.0813L90.75 82.1625C91.9688 83.3813 91.9688 85.3625 90.75 86.5813C90.1438 87.1938 89.3438 87.5001 88.5438 87.5001Z" fill="#629EF1"/>
</g>
<defs>
<clipPath id="clip0_19_252">
<rect width="200" height="200" fill="white"/>
</clipPath>
</defs>
</svg>
