<svg width="240" height="240" viewBox="0 0 240 240" fill="none" xmlns="http://www.w3.org/2000/svg">
<g clip-path="url(#clip0_28_334)">
<path d="M204.286 204.286C250.914 157.657 250.914 82.0571 204.286 35.4285C157.657 -11.2001 82.0572 -11.2001 35.4286 35.4285C-11.2 82.0571 -11.2001 157.657 35.4285 204.286C82.0572 250.914 157.657 250.914 204.286 204.286Z" fill="#20273F"/>
<mask id="mask0_28_334" style="mask-type:luminance" maskUnits="userSpaceOnUse" x="0" y="0" width="240" height="240">
<path d="M239.257 119.857C239.257 53.9142 185.8 0.457084 119.857 0.457087C53.9143 0.45709 0.457145 53.9142 0.457148 119.857C0.457151 185.8 53.9144 239.257 119.857 239.257C185.8 239.257 239.257 185.8 239.257 119.857Z" fill="white"/>
</mask>
<g mask="url(#mask0_28_334)">
<path d="M149.276 172.41L256.696 245.08" stroke="#291B4A" stroke-width="4" stroke-linecap="round" stroke-linejoin="round"/>
<path d="M154.326 157.77L261.746 230.44" stroke="#291B4A" stroke-width="4" stroke-linecap="round" stroke-linejoin="round"/>
<path d="M180.686 144.68L256.316 195.84" stroke="#291B4A" stroke-width="4" stroke-linecap="round" stroke-linejoin="round"/>
<path d="M-46.054 38.92L61.356 111.59" stroke="#291B4A" stroke-width="4" stroke-linecap="round" stroke-linejoin="round"/>
<path d="M-41.0139 24.27L66.4061 96.94" stroke="#291B4A" stroke-width="4" stroke-linecap="round" stroke-linejoin="round"/>
<path d="M8.88599 35L84.576 86.21" stroke="#291B4A" stroke-width="4" stroke-linecap="round" stroke-linejoin="round"/>
<path d="M62.396 125.35V100.01L103.256 76.03L112.526 81.76L72.476 106.28V132.16L62.396 125.35Z" stroke="#291B4A" stroke-width="4" stroke-linejoin="round"/>
<path d="M124.446 168.53V138.96L167.256 113.97L181.426 122.19L139.566 147.82V178.02L124.446 168.53Z" stroke="#291B4A" stroke-width="4" stroke-linejoin="round"/>
<path d="M139.566 178.02L149.276 172.41L154.636 163.69V157.97L151.546 155.97V152.98L171.806 138.75L181.426 145.18V122.19L139.566 147.82V178.02Z" stroke="#291B4A" stroke-width="4" stroke-linejoin="round"/>
<path d="M63.7061 100.76L73.7961 107.11" stroke="#291B4A" stroke-width="4" stroke-linejoin="round"/>
<path d="M72.4761 132.16V106.28L115.916 79.6801L170.436 111.84L124.446 138.96V168.53L72.4761 132.16Z" stroke="#291B4A" stroke-width="4" stroke-linejoin="round"/>
<path d="M72.4761 106.28L124.446 138.96" stroke="#291B4A" stroke-width="4" stroke-linejoin="round"/>
<path d="M87.4561 96.3701L139.426 129.06" stroke="#291B4A" stroke-width="4" stroke-linejoin="round"/>
<path d="M104.296 86.2101L157.326 119.57" stroke="#291B4A" stroke-width="4" stroke-linejoin="round"/>
<path d="M149.276 167.41L256.696 240.08" stroke="#EBE7F2" stroke-width="4" stroke-linecap="round" stroke-linejoin="round"/>
<path d="M154.326 152.77L261.746 225.44" stroke="#EBE7F2" stroke-width="4" stroke-linecap="round" stroke-linejoin="round"/>
<path d="M180.686 139.68L256.316 190.84" stroke="#EBE7F2" stroke-width="4" stroke-linecap="round" stroke-linejoin="round"/>
<path d="M-46.054 33.92L61.356 106.59" stroke="#EBE7F2" stroke-width="4" stroke-linecap="round" stroke-linejoin="round"/>
<path d="M-41.0139 19.27L66.4061 91.94" stroke="#EBE7F2" stroke-width="4" stroke-linecap="round" stroke-linejoin="round"/>
<path d="M8.88599 30L84.576 81.21" stroke="#EBE7F2" stroke-width="4" stroke-linecap="round" stroke-linejoin="round"/>
<path d="M149.286 166.71C149.386 166.71 149.526 166.73 149.676 166.83L257.096 239.5C257.416 239.72 257.496 240.15 257.286 240.47C257.156 240.66 256.936 240.78 256.706 240.78C256.606 240.78 256.466 240.76 256.316 240.66L148.896 167.99C148.576 167.77 148.496 167.34 148.706 167.02C148.836 166.83 149.056 166.71 149.286 166.71ZM149.286 165.41C148.646 165.41 148.016 165.72 147.626 166.29C147.006 167.2 147.246 168.45 148.166 169.07L255.586 241.74C255.926 241.97 256.316 242.08 256.706 242.08C257.346 242.08 257.976 241.77 258.366 241.2C258.986 240.29 258.746 239.04 257.826 238.42L150.406 165.75C150.066 165.52 149.676 165.41 149.286 165.41Z" fill="#D3D3D3"/>
<path d="M154.326 152.07C154.426 152.07 154.566 152.09 154.716 152.19L262.136 224.86C262.456 225.08 262.536 225.51 262.326 225.83C262.196 226.02 261.976 226.14 261.746 226.14C261.646 226.14 261.506 226.12 261.356 226.02L153.936 153.35C153.616 153.13 153.536 152.7 153.746 152.38C153.876 152.19 154.096 152.07 154.326 152.07ZM154.326 150.77C153.686 150.77 153.056 151.08 152.666 151.65C152.046 152.56 152.286 153.81 153.206 154.43L260.626 227.1C260.966 227.33 261.356 227.44 261.746 227.44C262.386 227.44 263.016 227.13 263.406 226.56C264.026 225.65 263.786 224.4 262.866 223.78L155.446 151.11C155.106 150.88 154.716 150.77 154.326 150.77Z" fill="#D3D3D3"/>
<path d="M180.686 138.98C180.786 138.98 180.926 139 181.076 139.1L256.716 190.27C257.036 190.49 257.116 190.92 256.906 191.24C256.776 191.43 256.556 191.55 256.326 191.55C256.226 191.55 256.086 191.53 255.936 191.43L180.296 140.26C179.976 140.04 179.896 139.61 180.106 139.29C180.236 139.1 180.456 138.98 180.686 138.98ZM180.686 137.68C180.046 137.68 179.416 137.99 179.026 138.56C178.406 139.48 178.646 140.72 179.566 141.34L255.206 192.51C255.546 192.74 255.936 192.85 256.326 192.85C256.966 192.85 257.596 192.54 257.986 191.97C258.606 191.05 258.366 189.81 257.446 189.19L181.806 138.02C181.466 137.79 181.076 137.68 180.686 137.68Z" fill="#D3D3D3"/>
<path d="M-46.0539 33.22C-45.9539 33.22 -45.8139 33.24 -45.6639 33.34L61.756 106.01C62.076 106.23 62.156 106.66 61.946 106.98C61.816 107.17 61.5961 107.29 61.3661 107.29C61.2661 107.29 61.1261 107.27 60.9761 107.17L-46.4439 34.5C-46.7639 34.28 -46.8439 33.85 -46.6339 33.53C-46.5039 33.34 -46.2839 33.22 -46.0539 33.22ZM-46.0539 31.92C-46.6939 31.92 -47.3239 32.23 -47.7139 32.8C-48.3339 33.71 -48.0939 34.96 -47.1739 35.58L60.2461 108.25C60.5861 108.48 60.9761 108.59 61.3661 108.59C62.0061 108.59 62.6361 108.28 63.0261 107.71C63.6461 106.8 63.4061 105.55 62.4861 104.93L-44.9339 32.26C-45.2739 32.03 -45.6639 31.92 -46.0539 31.92Z" fill="#D3D3D3"/>
<path d="M-41.0139 18.57C-40.9139 18.57 -40.7739 18.59 -40.6239 18.69L66.7961 91.36C67.1161 91.58 67.1961 92.01 66.9861 92.33C66.8561 92.52 66.6361 92.64 66.4061 92.64C66.3061 92.64 66.1661 92.62 66.0161 92.52L-41.4039 19.85C-41.7239 19.63 -41.8039 19.2 -41.5939 18.88C-41.4639 18.69 -41.2439 18.57 -41.0139 18.57ZM-41.0139 17.27C-41.6539 17.27 -42.2839 17.58 -42.6739 18.15C-43.2939 19.06 -43.0539 20.31 -42.1339 20.93L65.2861 93.6C65.6261 93.83 66.0161 93.94 66.4061 93.94C67.0461 93.94 67.6761 93.63 68.0661 93.06C68.6861 92.15 68.4461 90.9 67.5261 90.28L-39.8939 17.61C-40.2339 17.38 -40.6239 17.27 -41.0139 17.27Z" fill="#D3D3D3"/>
<path d="M8.88603 29.3C8.98603 29.3 9.12601 29.32 9.27601 29.42L84.966 80.63C85.286 80.85 85.366 81.28 85.156 81.6C85.026 81.79 84.806 81.91 84.576 81.91C84.476 81.91 84.336 81.89 84.186 81.79L8.49601 30.58C8.17601 30.36 8.09601 29.93 8.30601 29.61C8.43601 29.42 8.65603 29.3 8.88603 29.3ZM8.88603 28C8.24603 28 7.61602 28.31 7.22602 28.88C6.60602 29.79 6.846 31.04 7.766 31.66L83.456 82.87C83.796 83.1 84.186 83.21 84.576 83.21C85.216 83.21 85.846 82.9 86.236 82.33C86.856 81.42 86.616 80.17 85.696 79.55L10.006 28.34C9.66602 28.11 9.27603 28 8.88603 28Z" fill="#D3D3D3"/>
<path d="M62.396 120.35V95.01L103.256 71.03L112.526 76.76L72.476 101.28V127.16L62.396 120.35Z" stroke="#65C1D6" stroke-width="4" stroke-linejoin="round"/>
<path d="M124.446 163.53V133.96L167.256 108.97L181.426 117.19L139.566 142.82V173.02L124.446 163.53Z" stroke="#65C1D6" stroke-width="4" stroke-linejoin="round"/>
<path d="M139.566 173.02L149.276 167.41L154.636 158.69V152.97L151.546 150.97V147.98L171.806 133.75L181.426 140.18V117.19L139.566 142.82V173.02Z" stroke="#65C1D6" stroke-width="4" stroke-linejoin="round"/>
<path d="M63.7061 95.76L73.7961 102.11" stroke="#65C1D6" stroke-width="4" stroke-linejoin="round"/>
<path d="M103.256 70.33C103.386 70.33 103.516 70.37 103.626 70.43L112.886 76.15C113.096 76.28 113.216 76.5 113.216 76.75C113.216 77 113.086 77.22 112.886 77.35L73.796 101.28L73.176 101.66V127.15C73.176 127.41 73.036 127.65 72.806 127.77C72.706 127.82 72.586 127.85 72.476 127.85C72.336 127.85 72.196 127.81 72.086 127.73L62.006 120.92C61.816 120.79 61.696 120.57 61.696 120.34V95C61.696 94.75 61.826 94.52 62.046 94.4L102.916 70.43C103.026 70.37 103.146 70.33 103.266 70.33M72.476 100.45L73.166 100.03L109.386 77.86L111.186 76.76L109.386 75.65L103.916 72.27L103.246 71.86L102.566 72.26L65.636 93.92L63.786 95L65.596 96.14L71.776 100.03L72.456 100.46M71.776 125.84V101.66L71.166 101.28L65.086 97.46L63.096 96.21V119.98L63.666 120.37L69.746 124.48L71.776 125.85M103.256 69.03C102.906 69.03 102.556 69.12 102.246 69.3L61.376 93.27C60.766 93.63 60.386 94.29 60.386 95V120.34C60.386 121 60.716 121.63 61.266 122L71.346 128.81C71.686 129.04 72.076 129.15 72.466 129.15C72.786 129.15 73.106 129.07 73.406 128.92C74.056 128.57 74.466 127.89 74.466 127.15V102.39L113.556 78.46C114.146 78.1 114.506 77.45 114.516 76.76C114.526 76.07 114.156 75.42 113.566 75.05L104.306 69.33C103.986 69.13 103.616 69.03 103.256 69.03ZM72.486 98.92L66.306 95.03L103.236 73.37L108.706 76.75L72.486 98.92ZM70.476 123.39L64.396 119.28V98.55L70.476 102.37V123.38V123.39Z" fill="#149CB2"/>
<path d="M167.256 108.27C167.376 108.27 167.496 108.3 167.606 108.36L181.746 116.56C181.746 116.56 181.786 116.59 181.806 116.61L181.866 116.66C181.866 116.66 181.916 116.7 181.946 116.73C181.966 116.75 181.986 116.78 182.006 116.82C182.016 116.84 182.036 116.87 182.056 116.89C182.056 116.91 182.076 116.93 182.076 116.95C182.076 116.99 182.086 117.03 182.096 117.08C182.096 117.12 182.116 117.15 182.116 117.18V117.32V140.19C182.116 140.45 181.976 140.69 181.746 140.81C181.646 140.86 181.536 140.89 181.416 140.89C181.276 140.89 181.146 140.85 181.026 140.77L172.546 135.1L171.806 134.6L171.076 135.11L152.786 147.95L152.236 148.34V150.59L152.826 150.97L154.996 152.38C155.196 152.51 155.316 152.73 155.316 152.97V158.69C155.316 158.82 155.276 158.95 155.216 159.06L149.856 167.78C149.796 167.88 149.706 167.96 149.606 168.02L139.996 173.57L139.886 173.63C139.866 173.63 139.856 173.64 139.836 173.65L139.766 173.67C139.766 173.67 139.696 173.7 139.656 173.71C139.616 173.71 139.576 173.72 139.536 173.72C139.496 173.72 139.456 173.72 139.406 173.71C139.366 173.69 139.326 173.68 139.296 173.66L139.206 173.63H139.196C139.196 173.63 139.186 173.63 139.176 173.62L139.056 173.55L124.036 164.12C123.836 163.99 123.706 163.77 123.706 163.53V133.97C123.706 133.72 123.836 133.49 124.056 133.37L166.876 108.38C166.986 108.32 167.106 108.28 167.226 108.28M138.866 171.75V142.82C138.866 142.58 138.996 142.35 139.196 142.22L178.196 118.34L180.056 117.2L178.166 116.11L167.906 110.16L167.256 109.78L166.606 110.16L125.786 133.99L125.146 134.37V163.14L125.756 163.52L136.876 170.5L138.866 171.75ZM140.266 171.81L142.216 170.68L148.496 167.06L148.786 166.9L148.956 166.62L153.756 158.81L153.946 158.5V153.36L153.356 152.98L151.186 151.57C150.986 151.44 150.866 151.22 150.866 150.98V147.98C150.866 147.75 150.976 147.54 151.166 147.41L171.426 133.18C171.546 133.1 171.686 133.05 171.826 133.05C171.966 133.05 172.096 133.09 172.216 133.17L178.726 137.52L180.746 138.87V118.44L178.766 119.65L140.906 142.83L140.286 143.21V171.81M167.256 106.97C166.906 106.97 166.556 107.06 166.246 107.24L123.426 132.24C122.816 132.6 122.436 133.26 122.436 133.97V163.53C122.436 164.22 122.786 164.86 123.376 165.22L138.496 174.71C138.496 174.71 138.516 174.71 138.526 174.72C138.536 174.72 138.546 174.74 138.556 174.74C138.656 174.8 138.756 174.83 138.856 174.86C138.916 174.88 138.966 174.91 139.026 174.93C139.196 174.98 139.376 175 139.556 175C139.726 175 139.896 174.98 140.056 174.93C140.106 174.92 140.156 174.89 140.206 174.87C140.306 174.83 140.416 174.8 140.516 174.75C140.516 174.75 140.526 174.75 140.536 174.74C140.536 174.74 140.546 174.74 140.556 174.74L150.276 169.13C150.566 168.96 150.806 168.73 150.976 168.45L156.336 159.73C156.526 159.42 156.636 159.05 156.636 158.68V152.96C156.636 152.28 156.296 151.65 155.726 151.28L153.556 149.87V149L171.846 136.16L180.326 141.83C180.666 142.05 181.046 142.17 181.436 142.17C181.756 142.17 182.086 142.09 182.376 141.93C183.026 141.58 183.436 140.9 183.436 140.17V117.18C183.436 117.18 183.436 117.18 183.436 117.17C183.436 117.17 183.436 117.17 183.436 117.16C183.436 117.03 183.406 116.91 183.386 116.79C183.386 116.75 183.386 116.7 183.366 116.65C183.316 116.48 183.256 116.32 183.166 116.17C183.156 116.15 183.136 116.14 183.126 116.12C183.046 115.99 182.956 115.87 182.846 115.77C182.806 115.73 182.756 115.7 182.716 115.67C182.626 115.6 182.546 115.52 182.446 115.46L168.276 107.24C167.966 107.06 167.616 106.97 167.276 106.97H167.256ZM137.566 169.4L126.446 162.42V135.11L167.266 111.28L177.526 117.23L138.526 141.11C137.936 141.47 137.566 142.12 137.566 142.82V169.4ZM141.566 169.56V143.95L179.426 120.77V136.45L172.916 132.1C172.576 131.88 172.196 131.76 171.806 131.76C171.406 131.76 171.006 131.88 170.656 132.12L150.396 146.35C149.866 146.72 149.546 147.34 149.546 147.99V150.99C149.546 151.67 149.886 152.3 150.456 152.67L152.626 154.08V158.15L147.826 165.96L141.546 169.58L141.566 169.56Z" fill="#149CB2"/>
<path d="M72.4761 127.16V101.28L115.916 74.6801L170.436 106.84L124.446 133.96V163.53L72.4761 127.16Z" stroke="#F9B087" stroke-width="4" stroke-linejoin="round"/>
<path d="M72.4761 101.28L124.446 133.96" stroke="#F9B087" stroke-width="4" stroke-linejoin="round"/>
<path d="M87.4561 91.3701L139.426 124.06" stroke="#F9B087" stroke-width="4" stroke-linejoin="round"/>
<path d="M104.296 81.2101L157.326 114.57" stroke="#F9B087" stroke-width="4" stroke-linejoin="round"/>
<path d="M115.916 73.98C116.036 73.98 116.166 74.0101 116.276 74.0801L170.796 106.24C171.006 106.36 171.136 106.6 171.136 106.84C171.136 107.08 171.006 107.32 170.796 107.44L125.786 133.99L125.146 134.37V163.53C125.146 163.79 125.006 164.03 124.766 164.15C124.666 164.2 124.556 164.23 124.446 164.23C124.306 164.23 124.166 164.19 124.046 164.1L72.076 127.73C71.886 127.6 71.7761 127.38 71.7761 127.16V101.28C71.7761 101.04 71.9061 100.81 72.1061 100.68L115.546 74.0801C115.656 74.0101 115.786 73.98 115.906 73.98M157.336 113.75L158.016 113.35L167.156 107.96L169.056 106.84L167.156 105.72L116.586 75.9001L115.916 75.5001L115.246 75.91L107.866 80.4301L106.076 81.5201L107.846 82.6401L156.646 113.34L157.316 113.76M140.316 123.79L140.996 123.39L154.146 115.64L155.986 114.56L154.176 113.42L105.446 82.7701L104.766 82.34L104.076 82.7601L91.1661 90.66L89.376 91.7501L91.1461 92.8701L139.646 123.37L140.316 123.79ZM124.456 133.14L125.136 132.74L137.116 125.67L138.956 124.59L137.146 123.45L88.7161 92.9901L88.0361 92.5601L87.3461 92.98L75.5861 100.18L73.7961 101.27L75.566 102.39L123.776 132.71L124.446 133.13M123.746 162.18V134.35L123.136 133.97L75.1661 103.8L73.1761 102.55V126.8L73.7261 127.19L121.696 160.76L123.746 162.19M115.916 72.6801C115.556 72.6801 115.196 72.7801 114.876 72.9701L71.4361 99.5701C70.8461 99.9301 70.4761 100.58 70.4761 101.28V127.16C70.4761 127.81 70.796 128.42 71.326 128.8L123.296 165.17C123.636 165.41 124.036 165.53 124.446 165.53C124.766 165.53 125.076 165.46 125.366 165.3C126.026 164.96 126.446 164.27 126.446 163.53V135.11L171.456 108.56C172.066 108.2 172.436 107.55 172.436 106.84C172.436 106.13 172.066 105.48 171.456 105.12L116.936 72.9601C116.626 72.7701 116.266 72.6801 115.916 72.6801ZM157.366 112.23L108.566 81.5301L115.946 77.0101L166.516 106.83L157.376 112.22L157.366 112.23ZM140.336 122.27L91.8361 91.7701L104.746 83.8701L153.476 114.52L140.326 122.27H140.336ZM124.476 131.62L76.2661 101.3L88.0261 94.1001L136.456 124.56L124.476 131.63V131.62ZM122.446 159.69L74.4761 126.12V104.9L122.446 135.07V159.69Z" fill="#FF8639"/>
</g>
</g>
<defs>
<clipPath id="clip0_28_334">
<rect width="240" height="240" fill="white"/>
</clipPath>
</defs>
</svg>
