<svg width="200" height="200" viewBox="0 0 200 200" fill="none" xmlns="http://www.w3.org/2000/svg">
<g clip-path="url(#clip0_19_280)">
<path d="M162.5 200H37.5C16.7875 200 0 183.212 0 162.5V37.5C0 16.7875 16.7875 0 37.5 0H162.5C183.212 0 200 16.7875 200 37.5V162.5C200 183.212 183.212 200 162.5 200Z" fill="#E2EFFF"/>
<path d="M116.669 86.4625V73.9187C116.669 72.2125 115.625 70.6687 114 70.0437L84.8312 58.625C83.875 58.25 82.7875 58.25 81.8313 58.625L52.6625 70.0437C51.0437 70.6687 50 72.2125 50 73.9187V100.587C50 132.131 81.875 141.419 82.2062 141.506C82.5812 141.631 82.9563 141.675 83.3313 141.675C83.7062 141.675 84.0812 141.631 84.4562 141.506C84.75 141.425 110.625 133.881 115.75 109.381H107.169C102.919 125.256 87.7125 131.588 83.3375 133.131C78.3812 131.338 58.3375 122.881 58.3375 100.587V76.75L83.3375 66.9563L108.337 76.75V86.4563L116.669 86.4625Z" fill="#001647"/>
<path d="M134.825 112.5C129.406 112.5 125 107.887 125 102.219C125 100.725 125.312 99.2687 125.912 97.9187C125.312 96.5749 125 95.1187 125 93.6249C125 87.9499 129.406 83.3374 134.825 83.3374C138.256 83.3374 141.369 85.1812 143.144 88.1437C147.15 89.4687 150 93.3937 150 97.9187C150 102.444 147.15 106.369 143.138 107.694C141.369 110.662 138.25 112.5 134.825 112.5Z" fill="#629EF1"/>
<path d="M83.3312 108.337C81.0312 108.337 79.1625 106.469 79.1625 104.169V91.6687C79.1625 89.3687 81.025 87.5 83.3312 87.5C85.6375 87.5 87.5 89.3687 87.5 91.6687V104.169C87.5 106.469 85.6375 108.337 83.3312 108.337Z" fill="#629EF1"/>
<path d="M128.125 101.044H84.375C82.65 101.044 81.25 99.6437 81.25 97.9187C81.25 96.1937 82.65 94.7937 84.375 94.7937H128.125C129.85 94.7937 131.25 96.1937 131.25 97.9187C131.25 99.6437 129.85 101.044 128.125 101.044Z" fill="#629EF1"/>
</g>
<defs>
<clipPath id="clip0_19_280">
<rect width="200" height="200" fill="white"/>
</clipPath>
</defs>
</svg>
