<svg width="200" height="200" viewBox="0 0 200 200" fill="none" xmlns="http://www.w3.org/2000/svg">
<g clip-path="url(#clip0_19_288)">
<path d="M162.5 200H37.5C16.7875 200 0 183.212 0 162.5V37.5C0 16.7875 16.7875 0 37.5 0H162.5C183.212 0 200 16.7875 200 37.5V162.5C200 183.212 183.212 200 162.5 200Z" fill="#E2EFFF"/>
<path d="M99.4187 91.375H99.4625L119.881 84.4188C119.962 84.0438 119.962 83.6687 119.962 83.3375C119.962 82.9625 119.919 82.6312 119.794 82.2937C119.462 81.3375 118.837 80.2938 117.962 79.5438V70.4188C117.962 63.6688 115.544 61 113.044 59.4625C111.75 55.5437 106.375 50 95.8312 50C83.3312 50 73.9125 62.375 73.9125 70.4188C73.9125 73.75 73.7875 76.375 73.6625 78.375C73.6625 78.7937 73.6187 79.1688 73.6187 79.5C72.7 80.3313 72.075 81.4562 71.7875 82.5437C71.7437 82.7937 71.7062 83.0437 71.7062 83.3375C71.7062 86.5875 73.5375 91.2938 73.7875 91.8375C74.0375 92.5438 74.5812 93.1313 75.2875 93.4625C75.3312 93.6313 75.3687 93.8812 75.3687 94.3812C75.3687 98.8 79.1625 102.963 81.2437 104.963C81.0375 109.544 79.7437 112.712 77.9125 113.506L61.5812 118.925C56.9562 120.469 53.5 124.219 52.2875 128.969L50.0812 137.8C49.875 138.719 50.0812 139.719 50.6625 140.469C51.2437 141.219 52.1625 141.675 53.1187 141.675H99.8312C98.5812 140.094 97.4125 138.344 96.3312 136.469C93.5812 131.594 91.6625 125.675 91.6625 118.969V102.25C91.6687 97.3313 94.7937 93 99.4187 91.375Z" fill="#001647"/>
<path d="M147.881 99.2749L126.006 91.8375C125.356 91.6125 124.65 91.6125 123.994 91.8375L102.119 99.2749C100.85 99.7062 100 100.894 100 102.231V118.975C100 139.412 122.806 149.337 123.781 149.756C124.569 150.087 125.437 150.087 126.225 149.756C127.2 149.344 150.006 139.412 150.006 118.975V102.231C150.006 100.894 149.15 99.7062 147.881 99.2749ZM138.694 115.075L127.237 129.656C125.775 131.519 123.044 131.787 121.25 130.244L113.956 123.994C112.206 122.494 112 119.869 113.506 118.119C115.006 116.375 117.638 116.169 119.375 117.669L123.369 121.087L132.144 109.925C133.562 108.119 136.181 107.8 137.994 109.225C139.8 110.644 140.119 113.262 138.694 115.075Z" fill="#629EF1"/>
</g>
<defs>
<clipPath id="clip0_19_288">
<rect width="200" height="200" fill="white"/>
</clipPath>
</defs>
</svg>
