<svg width="200" height="200" viewBox="0 0 200 200" fill="none" xmlns="http://www.w3.org/2000/svg">
<g clip-path="url(#clip0_11_123)">
<path d="M162.5 200H37.5C16.7875 200 0 183.212 0 162.5V37.5C0 16.7875 16.7875 0 37.5 0H162.5C183.212 0 200 16.7875 200 37.5V162.5C200 183.212 183.212 200 162.5 200Z" fill="#E2EFFF"/>
<path d="M100 104.156C99.5688 104.156 99.1438 104.069 98.7438 103.894L72.7 92.4374C71.5688 91.9374 70.8313 90.8186 70.8313 89.5749C70.8313 88.3311 71.5625 87.2124 72.7 86.7124L98.7438 75.2562C99.5438 74.9062 100.463 74.9062 101.263 75.2562L127.306 86.7124C128.438 87.2124 129.175 88.3311 129.175 89.5749C129.175 90.8186 128.444 91.9374 127.306 92.4374L101.263 103.894C100.856 104.062 100.431 104.156 100 104.156Z" fill="#629EF1"/>
<path d="M103.775 109.612C102.562 110.144 101.3 110.406 100 110.406C98.7 110.406 97.4375 110.144 96.2375 109.619L79.1625 102.106V104.975C79.1625 107.519 80.4937 109.906 82.625 111.206C88.6312 114.85 94.3125 116.669 99.9937 116.669C105.675 116.669 111.356 114.844 117.362 111.206C119.5 109.906 120.825 107.519 120.825 104.975V102.106L103.775 109.612Z" fill="#629EF1"/>
<path d="M100 150C99.6313 150 99.2625 149.95 98.9063 149.856C98.5 149.744 58.3313 138.381 58.3313 99.6874V68.4312C58.3313 66.7 59.4 65.15 61.0188 64.5375L98.5188 50.2687C99.4688 49.9062 100.531 49.9062 101.481 50.2687L138.981 64.5375C140.6 65.15 141.669 66.7 141.669 68.4312V99.6874C141.669 138.381 101.5 149.744 101.094 149.856C100.738 149.95 100.369 150 100 150ZM66.6688 71.3062V99.6874C66.6688 129.05 94.0188 139.537 100 141.481C105.981 139.537 133.331 129.05 133.331 99.6874V71.3062L100 58.625L66.6688 71.3062Z" fill="#001647"/>
</g>
<defs>
<clipPath id="clip0_11_123">
<rect width="200" height="200" fill="white"/>
</clipPath>
</defs>
</svg>
