<svg width="200" height="200" viewBox="0 0 200 200" fill="none" xmlns="http://www.w3.org/2000/svg">
<g clip-path="url(#clip0_11_129)">
<path d="M162.5 200H37.5C16.7875 200 0 183.212 0 162.5V37.5C0 16.7875 16.7875 0 37.5 0H162.5C183.212 0 200 16.7875 200 37.5V162.5C200 183.212 183.212 200 162.5 200Z" fill="#E2EFFF"/>
<path d="M147.881 57.6062L126.006 50.1687C125.356 49.9438 124.65 49.9438 123.994 50.1687L102.119 57.6062C100.85 58.0375 100 59.225 100 60.5687V77.3125C100 97.75 122.806 107.675 123.781 108.094C124.569 108.425 125.437 108.425 126.225 108.094C127.194 107.675 150 97.7438 150 77.3062V60.5687C150 59.225 149.15 58.0375 147.881 57.6062ZM138.694 73.4062L127.237 87.9875C125.775 89.85 123.044 90.1187 121.25 88.575L113.956 82.325C112.206 80.825 112 78.2 113.506 76.45C115.006 74.7062 117.638 74.5 119.375 76L123.369 79.4187L132.144 68.2562C133.562 66.45 136.181 66.1312 137.994 67.5562C139.8 68.9812 140.119 71.6 138.694 73.4062Z" fill="#629EF1"/>
<path d="M95.8313 93.7938V129.169C95.8313 131.463 93.9563 133.338 91.6625 133.338H62.5C60.2063 133.338 58.3313 131.463 58.3313 129.169V91.6688C58.3313 89.3751 60.2063 87.5001 62.5 87.5001H91.6687C92.25 87.5001 92.8375 87.6251 93.3375 87.8313C92.4625 85.1251 91.8812 82.2501 91.7125 79.1626H62.5C55.625 79.1626 50 84.7876 50 91.6626V129.163C50 136.038 55.625 141.663 62.5 141.663H91.6687C98.5438 141.663 104.169 136.038 104.169 129.163V104.788C101 101.669 98.0438 98.0001 95.8313 93.7938Z" fill="#001647"/>
<path d="M85.4187 85.4187C83.1125 85.4187 81.25 83.55 81.25 81.25V66.6687C81.25 64.3625 83.1125 62.5 85.4187 62.5C87.7187 62.5 89.5875 64.3687 89.5875 66.6687V81.25C89.5812 83.55 87.7187 85.4187 85.4187 85.4187Z" fill="#001647"/>
<path d="M69.7937 85.4187C67.4937 85.4187 65.625 83.55 65.625 81.25V66.6687C65.625 64.3687 67.4875 62.5 69.7937 62.5C72.0937 62.5 73.9625 64.3687 73.9625 66.6687V81.25C73.9562 83.55 72.0937 85.4187 69.7937 85.4187Z" fill="#001647"/>
<path d="M91.6688 62.5V70.8313H62.5C60.2063 70.8313 58.3313 68.9563 58.3313 66.6625C58.3313 64.375 60.2063 62.5 62.5 62.5H91.6688Z" fill="#001647"/>
<path d="M62.5 150C60.2 150 58.3313 148.131 58.3313 145.831V139.581C58.3313 137.281 60.1938 135.413 62.5 135.413C64.8 135.413 66.6688 137.281 66.6688 139.581V145.831C66.6688 148.138 64.8 150 62.5 150Z" fill="#001647"/>
<path d="M91.6687 150C89.3625 150 87.5 148.138 87.5 145.831V139.581C87.5 137.281 89.3625 135.413 91.6687 135.413C93.9687 135.413 95.8375 137.281 95.8375 139.581V145.831C95.8312 148.138 93.9687 150 91.6687 150Z" fill="#001647"/>
<path d="M80.2062 125H73.9562C69.9375 125 66.6625 121.731 66.6625 117.706V111.456C66.6625 107.438 69.9312 104.163 73.9562 104.163H80.2062C84.225 104.163 87.5 107.431 87.5 111.456V117.706C87.5 121.731 84.2312 125 80.2062 125Z" fill="#001647"/>
</g>
<defs>
<clipPath id="clip0_11_129">
<rect width="200" height="200" fill="white"/>
</clipPath>
</defs>
</svg>
