<svg width="23" height="30" viewBox="0 0 23 30" fill="none" xmlns="http://www.w3.org/2000/svg">
<path d="M11.5 0.75C8.60158 0.749848 5.82023 1.95085 3.76046 4.09197C1.70069 6.23309 0.528984 9.14128 0.5 12.1845C0.5 20.0962 10.1938 28.903 10.6063 29.2784C10.8553 29.5021 11.1723 29.625 11.5 29.625C11.8277 29.625 12.1447 29.5021 12.3937 29.2784C12.875 28.903 22.5 20.0962 22.5 12.1845C22.471 9.14128 21.2993 6.23309 19.2395 4.09197C17.1798 1.95085 14.3984 0.749848 11.5 0.75ZM11.5 16.6312C10.5482 16.6312 9.61773 16.3348 8.82632 15.7796C8.03491 15.2244 7.41808 14.4352 7.05383 13.5118C6.68958 12.5885 6.59428 11.5725 6.77997 10.5923C6.96566 9.61207 7.42401 8.71169 8.09705 8.005C8.77009 7.29831 9.62759 6.81705 10.5611 6.62208C11.4947 6.4271 12.4623 6.52717 13.3417 6.90963C14.221 7.29208 14.9726 7.93975 15.5014 8.77073C16.0303 9.60171 16.3125 10.5787 16.3125 11.5781C16.3125 12.9183 15.8055 14.2035 14.903 15.1512C14.0004 16.0988 12.7764 16.6312 11.5 16.6312Z" fill="#382B73"/>
</svg>
