<svg width="21" height="33" viewBox="0 0 21 33" fill="none" xmlns="http://www.w3.org/2000/svg">
<path d="M0.1875 4.125C0.1875 3.03098 0.622097 1.98177 1.39568 1.20818C2.16927 0.434597 3.21848 0 4.3125 0L16.6875 0C17.7815 0 18.8307 0.434597 19.6043 1.20818C20.3779 1.98177 20.8125 3.03098 20.8125 4.125V28.875C20.8125 29.969 20.3779 31.0182 19.6043 31.7918C18.8307 32.5654 17.7815 33 16.6875 33H4.3125C3.21848 33 2.16927 32.5654 1.39568 31.7918C0.622097 31.0182 0.1875 29.969 0.1875 28.875V4.125ZM12.5625 26.8125C12.5625 26.2655 12.3452 25.7409 11.9584 25.3541C11.5716 24.9673 11.047 24.75 10.5 24.75C9.95299 24.75 9.42839 24.9673 9.04159 25.3541C8.6548 25.7409 8.4375 26.2655 8.4375 26.8125C8.4375 27.3595 8.6548 27.8841 9.04159 28.2709C9.42839 28.6577 9.95299 28.875 10.5 28.875C11.047 28.875 11.5716 28.6577 11.9584 28.2709C12.3452 27.8841 12.5625 27.3595 12.5625 26.8125Z" fill="#382B73"/>
</svg>
