<svg width="11" height="14" viewBox="0 0 11 14" fill="none" xmlns="http://www.w3.org/2000/svg">
<path d="M1.87673e-06 0.700421L1.32595e-06 13.3008C0.000420937 13.4284 0.0373462 13.5534 0.106802 13.6625C0.176258 13.7715 0.275614 13.8605 0.394176 13.9197C0.512739 13.979 0.646017 14.0063 0.779666 13.9988C0.913314 13.9912 1.04227 13.9491 1.15266 13.8769L10.703 7.57672C11.099 7.31561 11.099 6.68699 10.703 6.42519L1.15266 0.125005C1.0425 0.05208 0.91348 0.00931535 0.779609 0.00135684C0.645738 -0.00660167 0.512138 0.0205505 0.393325 0.0798632C0.274511 0.139176 0.175028 0.228381 0.105685 0.337786C0.0363416 0.447191 -0.00020888 0.572611 1.87673e-06 0.700421Z" fill="white"/>
</svg>
